# MagicaVoxel @ Ephtracy

# material
mtllib Escada.mtl
usemtl palette

# normals
vn -1 0 0
vn 1 0 0
vn 0 0 1
vn 0 0 -1
vn 0 -1 0
vn 0 1 0

# texcoords
vt 0.181641 0.5
vt 0.310547 0.5
vt 0.537109 0.5
vt 0.955078 0.5
vt 0.958984 0.5
vt 0.962891 0.5
vt 0.978516 0.5
vt 0.990234 0.5

# verts
v -13 0 27
v -13 0 -22
v -13 1 27
v -13 1 -22
v -13 98 27
v -13 98 -22
v -9 125 60
v -9 125 59
v -9 126 60
v -9 126 59
v 2 30 -0
v 2 30 -1
v 2 31 -0
v 2 31 -1
v 7 73 -19
v 7 73 -20
v 7 75 -19
v 7 75 -20
v 8 56 -20
v 8 56 -21
v 8 73 -20
v 8 73 -21
v 8 75 -20
v 8 75 -21
v 8 76 -20
v 8 76 -21
v 8 77 -20
v 8 77 -21
v 8 78 -20
v 8 78 -21
v 8 79 -20
v 8 79 -21
v 8 90 -20
v 8 90 -21
v 10 42 -0
v 10 42 -8
v 10 48 -8
v 10 49 -0
v 10 49 -8
v 10 49 -18
v 10 49 -19
v 10 54 -19
v 10 55 -19
v 10 55 -20
v 10 92 -18
v 10 92 -20
v 29 17 23
v 29 17 -0
v 29 18 23
v 29 18 -0
v 34 43 23
v 34 43 -0
v 34 49 -0
v 34 49 -18
v 34 92 23
v 34 92 -18
v -9 36 23
v -9 36 -0
v -9 41 -0
v -9 42 -0
v -9 42 -8
v -9 48 -8
v -9 49 -8
v -9 49 -19
v -9 54 -19
v -9 55 -19
v -9 55 -20
v -9 92 23
v -9 92 -20
v -8 125 60
v -8 125 59
v -8 126 60
v -8 126 59
v -7 56 -20
v -7 56 -21
v -7 73 -20
v -7 73 -21
v -7 75 -20
v -7 75 -21
v -7 76 -20
v -7 76 -21
v -7 77 -20
v -7 77 -21
v -7 78 -20
v -7 78 -21
v -7 79 -20
v -7 79 -21
v -7 90 -20
v -7 90 -21
v -4 17 23
v -4 17 -0
v -4 18 23
v -4 18 -0
v 0 30 -0
v 0 30 -1
v 0 31 -0
v 0 31 -1
v 8 73 -19
v 8 73 -20
v 8 75 -19
v 8 75 -20
v 11 31 23
v 11 31 -0
v 11 35 23
v 11 35 -0
v 11 36 23
v 11 36 -0
v 18 26 23
v 18 26 -0
v 18 30 23
v 18 30 -0
v 18 31 23
v 18 31 -0
v 25 22 23
v 25 22 -0
v 25 25 23
v 25 25 -0
v 25 26 23
v 25 26 -0
v 30 17 23
v 30 17 -0
v 30 21 23
v 30 21 -0
v 30 22 23
v 30 22 -0
v 35 12 23
v 35 12 -0
v 35 16 23
v 35 16 -0
v 35 17 23
v 35 17 -0
v 41 6 23
v 41 6 -0
v 41 11 23
v 41 11 -0
v 41 12 23
v 41 12 -0
v 49 0 23
v 49 0 -0
v 49 1 23
v 49 1 -0
v 49 5 23
v 49 5 -0
v 49 6 23
v 49 6 -0
v 50 0 27
v 50 0 23
v 50 0 -0
v 50 0 -22
v 50 1 27
v 50 1 23
v 50 1 -0
v 50 1 -22
v 50 43 23
v 50 43 -0
v 50 98 27
v 50 98 -22
v -9 125 60
v -9 126 60
v -8 125 60
v -8 126 60
v -13 0 27
v -13 1 27
v -13 98 27
v 50 0 27
v 50 1 27
v 50 98 27
v -9 36 -0
v -9 41 -0
v -9 42 -0
v -4 17 -0
v -4 18 -0
v 10 17 -0
v 10 18 -0
v 10 36 -0
v 10 41 -0
v 10 42 -0
v 10 49 -0
v 11 31 -0
v 11 35 -0
v 11 36 -0
v 17 31 -0
v 18 26 -0
v 18 30 -0
v 18 31 -0
v 24 26 -0
v 25 22 -0
v 25 25 -0
v 25 26 -0
v 29 17 -0
v 29 18 -0
v 30 17 -0
v 30 21 -0
v 30 22 -0
v 34 17 -0
v 34 43 -0
v 34 49 -0
v 35 12 -0
v 35 16 -0
v 35 17 -0
v 40 12 -0
v 41 6 -0
v 41 11 -0
v 41 12 -0
v 48 6 -0
v 49 0 -0
v 49 1 -0
v 49 5 -0
v 49 6 -0
v 50 0 -0
v 50 1 -0
v 50 43 -0
v 0 30 -1
v 0 31 -1
v 2 30 -1
v 2 31 -1
v -9 42 -8
v -9 48 -8
v -9 49 -8
v 10 42 -8
v 10 48 -8
v 10 49 -8
v 10 49 -18
v 10 92 -18
v 34 49 -18
v 34 92 -18
v -9 49 -19
v -9 54 -19
v -9 55 -19
v 7 73 -19
v 7 75 -19
v 8 73 -19
v 8 75 -19
v 10 49 -19
v 10 54 -19
v 10 55 -19
v -9 55 -20
v -9 92 -20
v -7 56 -20
v -7 73 -20
v -7 75 -20
v -7 76 -20
v -7 77 -20
v -7 78 -20
v -7 79 -20
v -7 90 -20
v 7 73 -20
v 7 75 -20
v 8 56 -20
v 8 73 -20
v 8 75 -20
v 8 76 -20
v 8 77 -20
v 8 78 -20
v 8 79 -20
v 8 90 -20
v 10 55 -20
v 10 92 -20
v -7 56 -21
v -7 73 -21
v -7 75 -21
v -7 76 -21
v -7 77 -21
v -7 78 -21
v -7 79 -21
v -7 90 -21
v 8 56 -21
v 8 73 -21
v 8 75 -21
v 8 76 -21
v 8 77 -21
v 8 78 -21
v 8 79 -21
v 8 90 -21
v -9 125 59
v -9 126 59
v -8 125 59
v -8 126 59
v -9 36 23
v -9 92 23
v -4 17 23
v -4 18 23
v 10 17 23
v 10 18 23
v 11 31 23
v 11 35 23
v 11 36 23
v 17 31 23
v 18 26 23
v 18 30 23
v 18 31 23
v 24 26 23
v 25 22 23
v 25 25 23
v 25 26 23
v 29 17 23
v 29 18 23
v 30 17 23
v 30 21 23
v 30 22 23
v 34 17 23
v 34 43 23
v 34 92 23
v 35 12 23
v 35 16 23
v 35 17 23
v 40 12 23
v 41 6 23
v 41 11 23
v 41 12 23
v 48 6 23
v 49 0 23
v 49 1 23
v 49 5 23
v 49 6 23
v 50 0 23
v 50 1 23
v 50 43 23
v 0 30 -0
v 0 31 -0
v 2 30 -0
v 2 31 -0
v -13 0 -22
v -13 1 -22
v -13 98 -22
v -10 55 -22
v -10 92 -22
v 10 55 -22
v 10 92 -22
v 50 0 -22
v 50 1 -22
v 50 98 -22
v -13 0 27
v 50 0 27
v 49 0 23
v 50 0 23
v 49 0 -0
v 50 0 -0
v -13 0 -22
v 50 0 -22
v -4 18 23
v 10 18 23
v 29 18 23
v -4 18 -0
v 10 18 -0
v 29 18 -0
v 0 31 -0
v 2 31 -0
v 0 31 -1
v 2 31 -1
v 34 43 23
v 50 43 23
v 34 43 -0
v 50 43 -0
v 7 73 -19
v 8 73 -19
v -7 73 -20
v 7 73 -20
v 8 73 -20
v -7 73 -21
v 8 73 -21
v -7 76 -20
v 8 76 -20
v -7 76 -21
v 8 76 -21
v -7 78 -20
v 8 78 -20
v -7 78 -21
v 8 78 -21
v -7 90 -20
v 8 90 -20
v -7 90 -21
v 8 90 -21
v -9 92 23
v 34 92 23
v 10 92 -18
v 34 92 -18
v -9 92 -20
v 10 92 -20
v -9 125 60
v -8 125 60
v -9 125 59
v -8 125 59
v 41 6 23
v 48 6 23
v 49 6 23
v 41 6 -0
v 48 6 -0
v 49 6 -0
v 35 12 23
v 40 12 23
v 41 12 23
v 35 12 -0
v 40 12 -0
v 41 12 -0
v -4 17 23
v 10 17 23
v 29 17 23
v 30 17 23
v 34 17 23
v 35 17 23
v -4 17 -0
v 10 17 -0
v 29 17 -0
v 30 17 -0
v 34 17 -0
v 35 17 -0
v 25 22 23
v 30 22 23
v 25 22 -0
v 30 22 -0
v 18 26 23
v 24 26 23
v 25 26 23
v 18 26 -0
v 24 26 -0
v 25 26 -0
v 0 30 -0
v 2 30 -0
v 0 30 -1
v 2 30 -1
v 11 31 23
v 17 31 23
v 18 31 23
v 11 31 -0
v 17 31 -0
v 18 31 -0
v -9 36 23
v 11 36 23
v -9 36 -0
v 10 36 -0
v 11 36 -0
v -9 42 -0
v 10 42 -0
v -9 42 -8
v 10 42 -8
v 10 49 -0
v 34 49 -0
v -9 49 -8
v 10 49 -8
v 10 49 -18
v 34 49 -18
v -9 49 -19
v 10 49 -19
v -9 55 -19
v 10 55 -19
v -9 55 -20
v 10 55 -20
v -7 56 -20
v 8 56 -20
v -7 56 -21
v 8 56 -21
v 7 75 -19
v 8 75 -19
v -7 75 -20
v 7 75 -20
v 8 75 -20
v -7 75 -21
v 8 75 -21
v -7 77 -20
v 8 77 -20
v -7 77 -21
v 8 77 -21
v -7 79 -20
v 8 79 -20
v -7 79 -21
v 8 79 -21
v -13 98 27
v 50 98 27
v -13 98 -22
v 50 98 -22
v -9 126 60
v -8 126 60
v -9 126 59
v -8 126 59

# faces
f 3/2/1 2/2/1 1/2/1
f 4/2/1 2/2/1 3/2/1
f 5/1/1 4/1/1 3/1/1
f 6/1/1 4/1/1 5/1/1
f 9/2/1 8/2/1 7/2/1
f 10/2/1 8/2/1 9/2/1
f 13/2/1 12/2/1 11/2/1
f 14/2/1 12/2/1 13/2/1
f 17/7/1 16/7/1 15/7/1
f 18/7/1 16/7/1 17/7/1
f 21/3/1 20/3/1 19/3/1
f 22/3/1 20/3/1 21/3/1
f 25/3/1 24/3/1 23/3/1
f 26/3/1 24/3/1 25/3/1
f 29/3/1 28/3/1 27/3/1
f 30/3/1 28/3/1 29/3/1
f 33/3/1 32/3/1 31/3/1
f 34/3/1 32/3/1 33/3/1
f 37/1/1 36/1/1 35/1/1
f 38/1/1 37/1/1 35/1/1
f 39/1/1 37/1/1 38/1/1
f 42/1/1 41/1/1 40/1/1
f 43/1/1 42/1/1 40/1/1
f 45/1/1 43/1/1 40/1/1
f 45/1/1 44/1/1 43/1/1
f 46/1/1 44/1/1 45/1/1
f 49/6/1 48/6/1 47/6/1
f 50/6/1 48/6/1 49/6/1
f 53/1/1 52/1/1 51/1/1
f 55/1/1 53/1/1 51/1/1
f 55/1/1 54/1/1 53/1/1
f 56/1/1 54/1/1 55/1/1
f 57/1/2 58/1/2 59/1/2
f 57/1/2 59/1/2 60/1/2
f 60/1/2 61/1/2 62/1/2
f 60/1/2 62/1/2 63/1/2
f 63/1/2 64/1/2 65/1/2
f 63/1/2 65/1/2 66/1/2
f 57/1/2 60/1/2 68/1/2
f 66/1/2 67/1/2 68/1/2
f 63/1/2 66/1/2 68/1/2
f 60/1/2 63/1/2 68/1/2
f 68/1/2 67/1/2 69/1/2
f 70/2/2 71/2/2 72/2/2
f 72/2/2 71/2/2 73/2/2
f 74/3/2 75/3/2 76/3/2
f 76/3/2 75/3/2 77/3/2
f 78/3/2 79/3/2 80/3/2
f 80/3/2 79/3/2 81/3/2
f 82/3/2 83/3/2 84/3/2
f 84/3/2 83/3/2 85/3/2
f 86/3/2 87/3/2 88/3/2
f 88/3/2 87/3/2 89/3/2
f 90/8/2 91/8/2 92/8/2
f 92/8/2 91/8/2 93/8/2
f 94/2/2 95/2/2 96/2/2
f 96/2/2 95/2/2 97/2/2
f 98/7/2 99/7/2 100/7/2
f 100/7/2 99/7/2 101/7/2
f 102/5/2 103/5/2 104/5/2
f 104/5/2 103/5/2 105/5/2
f 104/8/2 105/8/2 106/8/2
f 106/8/2 105/8/2 107/8/2
f 108/6/2 109/6/2 110/6/2
f 110/6/2 109/6/2 111/6/2
f 110/8/2 111/8/2 112/8/2
f 112/8/2 111/8/2 113/8/2
f 114/6/2 115/6/2 116/6/2
f 116/6/2 115/6/2 117/6/2
f 116/8/2 117/8/2 118/8/2
f 118/8/2 117/8/2 119/8/2
f 120/6/2 121/6/2 122/6/2
f 122/6/2 121/6/2 123/6/2
f 122/4/2 123/4/2 124/4/2
f 124/4/2 123/4/2 125/4/2
f 126/6/2 127/6/2 128/6/2
f 128/6/2 127/6/2 129/6/2
f 128/8/2 129/8/2 130/8/2
f 130/8/2 129/8/2 131/8/2
f 132/6/2 133/6/2 134/6/2
f 134/6/2 133/6/2 135/6/2
f 134/8/2 135/8/2 136/8/2
f 136/8/2 135/8/2 137/8/2
f 138/2/2 139/2/2 140/2/2
f 140/2/2 139/2/2 141/2/2
f 140/6/2 141/6/2 142/6/2
f 142/6/2 141/6/2 143/6/2
f 142/8/2 143/8/2 144/8/2
f 144/8/2 143/8/2 145/8/2
f 146/2/2 147/2/2 150/2/2
f 150/2/2 147/2/2 151/2/2
f 148/2/2 149/2/2 152/2/2
f 152/2/2 149/2/2 153/2/2
f 150/1/2 151/1/2 154/1/2
f 152/1/2 153/1/2 155/1/2
f 150/1/2 154/1/2 156/1/2
f 154/1/2 155/1/2 156/1/2
f 155/1/2 153/1/2 157/1/2
f 156/1/2 155/1/2 157/1/2
f 160/2/3 159/2/3 158/2/3
f 161/2/3 159/2/3 160/2/3
f 165/2/3 163/2/3 162/2/3
f 166/1/3 164/1/3 163/1/3
f 166/2/3 163/2/3 165/2/3
f 167/1/3 164/1/3 166/1/3
f 173/1/3 172/1/3 171/1/3
f 174/1/3 172/1/3 173/1/3
f 175/6/3 169/6/3 168/6/3
f 176/8/3 170/8/3 169/8/3
f 176/6/3 169/6/3 175/6/3
f 177/8/3 170/8/3 176/8/3
f 181/1/3 176/1/3 175/1/3
f 181/1/3 177/1/3 176/1/3
f 181/1/3 178/1/3 177/1/3
f 182/1/3 180/1/3 179/1/3
f 182/1/3 181/1/3 180/1/3
f 185/1/3 181/1/3 182/1/3
f 186/1/3 184/1/3 183/1/3
f 186/1/3 185/1/3 184/1/3
f 189/1/3 185/1/3 186/1/3
f 190/1/3 174/1/3 173/1/3
f 191/1/3 174/1/3 190/1/3
f 194/1/3 189/1/3 188/1/3
f 194/1/3 188/1/3 187/1/3
f 195/1/3 193/1/3 192/1/3
f 195/1/3 194/1/3 193/1/3
f 196/1/3 189/1/3 194/1/3
f 196/1/3 194/1/3 195/1/3
f 196/1/3 178/1/3 181/1/3
f 196/1/3 181/1/3 185/1/3
f 196/1/3 185/1/3 189/1/3
f 197/1/3 178/1/3 196/1/3
f 200/1/3 196/1/3 195/1/3
f 201/1/3 199/1/3 198/1/3
f 201/1/3 200/1/3 199/1/3
f 204/1/3 200/1/3 201/1/3
f 205/1/3 203/1/3 202/1/3
f 205/1/3 204/1/3 203/1/3
f 209/1/3 204/1/3 205/1/3
f 210/2/3 207/2/3 206/2/3
f 211/1/3 208/1/3 207/1/3
f 211/2/3 207/2/3 210/2/3
f 211/1/3 209/1/3 208/1/3
f 212/1/3 196/1/3 200/1/3
f 212/1/3 209/1/3 211/1/3
f 212/1/3 200/1/3 204/1/3
f 212/1/3 204/1/3 209/1/3
f 215/2/3 214/2/3 213/2/3
f 216/2/3 214/2/3 215/2/3
f 220/6/3 218/6/3 217/6/3
f 221/8/3 219/8/3 218/8/3
f 221/6/3 218/6/3 220/6/3
f 222/8/3 219/8/3 221/8/3
f 225/1/3 224/1/3 223/1/3
f 226/1/3 224/1/3 225/1/3
f 232/7/3 231/7/3 230/7/3
f 233/7/3 231/7/3 232/7/3
f 234/6/3 228/6/3 227/6/3
f 235/8/3 229/8/3 228/8/3
f 235/6/3 228/6/3 234/6/3
f 236/8/3 229/8/3 235/8/3
f 239/3/3 238/3/3 237/3/3
f 240/3/3 238/3/3 239/3/3
f 241/3/3 238/3/3 240/3/3
f 242/3/3 238/3/3 241/3/3
f 243/3/3 238/3/3 242/3/3
f 244/3/3 238/3/3 243/3/3
f 245/3/3 238/3/3 244/3/3
f 246/3/3 238/3/3 245/3/3
f 247/3/3 241/3/3 240/3/3
f 248/3/3 241/3/3 247/3/3
f 249/3/3 239/3/3 237/3/3
f 252/3/3 243/3/3 242/3/3
f 253/3/3 243/3/3 252/3/3
f 254/3/3 245/3/3 244/3/3
f 255/3/3 245/3/3 254/3/3
f 256/3/3 238/3/3 246/3/3
f 257/3/3 251/3/3 250/3/3
f 257/3/3 256/3/3 255/3/3
f 257/3/3 255/3/3 254/3/3
f 257/3/3 253/3/3 252/3/3
f 257/3/3 254/3/3 253/3/3
f 257/3/3 250/3/3 249/3/3
f 257/3/3 252/3/3 251/3/3
f 257/3/3 249/3/3 237/3/3
f 258/3/3 238/3/3 256/3/3
f 258/3/3 256/3/3 257/3/3
f 267/3/3 260/3/3 259/3/3
f 268/3/3 260/3/3 267/3/3
f 269/3/3 262/3/3 261/3/3
f 270/3/3 262/3/3 269/3/3
f 271/3/3 264/3/3 263/3/3
f 272/3/3 264/3/3 271/3/3
f 273/3/3 266/3/3 265/3/3
f 274/3/3 266/3/3 273/3/3
f 275/2/4 276/2/4 277/2/4
f 277/2/4 276/2/4 278/2/4
f 281/1/4 282/1/4 283/1/4
f 283/1/4 282/1/4 284/1/4
f 279/1/4 280/1/4 287/1/4
f 285/1/4 286/1/4 288/1/4
f 286/1/4 287/1/4 288/1/4
f 288/1/4 287/1/4 291/1/4
f 289/1/4 290/1/4 292/1/4
f 290/1/4 291/1/4 292/1/4
f 292/1/4 291/1/4 295/1/4
f 283/1/4 284/1/4 296/1/4
f 296/1/4 284/1/4 297/1/4
f 294/1/4 295/1/4 300/1/4
f 293/1/4 294/1/4 300/1/4
f 298/1/4 299/1/4 301/1/4
f 299/1/4 300/1/4 301/1/4
f 287/1/4 280/1/4 302/1/4
f 301/1/4 300/1/4 302/1/4
f 300/1/4 295/1/4 302/1/4
f 291/1/4 287/1/4 302/1/4
f 295/1/4 291/1/4 302/1/4
f 302/1/4 280/1/4 303/1/4
f 301/1/4 302/1/4 306/1/4
f 304/1/4 305/1/4 307/1/4
f 305/1/4 306/1/4 307/1/4
f 307/1/4 306/1/4 310/1/4
f 308/1/4 309/1/4 311/1/4
f 309/1/4 310/1/4 311/1/4
f 311/1/4 310/1/4 315/1/4
f 312/2/4 313/2/4 316/2/4
f 313/1/4 314/1/4 317/1/4
f 316/2/4 313/2/4 317/2/4
f 314/1/4 315/1/4 317/1/4
f 306/1/4 302/1/4 318/1/4
f 317/1/4 315/1/4 318/1/4
f 310/1/4 306/1/4 318/1/4
f 315/1/4 310/1/4 318/1/4
f 319/8/4 320/8/4 321/8/4
f 321/8/4 320/8/4 322/8/4
f 324/1/4 325/1/4 326/1/4
f 326/1/4 325/1/4 327/1/4
f 324/1/4 326/1/4 328/1/4
f 326/3/4 327/3/4 328/3/4
f 327/1/4 325/1/4 329/1/4
f 328/3/4 327/3/4 329/3/4
f 323/2/4 324/2/4 330/2/4
f 324/1/4 328/1/4 331/1/4
f 330/2/4 324/2/4 331/2/4
f 328/1/4 329/1/4 331/1/4
f 329/1/4 325/1/4 332/1/4
f 331/1/4 329/1/4 332/1/4
f 335/2/5 334/2/5 333/2/5
f 336/2/5 334/2/5 335/2/5
f 337/2/5 335/2/5 333/2/5
f 339/2/5 337/2/5 333/2/5
f 339/2/5 338/2/5 337/2/5
f 340/2/5 338/2/5 339/2/5
f 344/8/5 342/8/5 341/8/5
f 345/2/5 343/2/5 342/2/5
f 345/8/5 342/8/5 344/8/5
f 346/2/5 343/2/5 345/2/5
f 349/2/5 348/2/5 347/2/5
f 350/2/5 348/2/5 349/2/5
f 353/1/5 352/1/5 351/1/5
f 354/1/5 352/1/5 353/1/5
f 358/7/5 356/7/5 355/7/5
f 359/7/5 356/7/5 358/7/5
f 360/3/5 358/3/5 357/3/5
f 360/3/5 359/3/5 358/3/5
f 361/3/5 359/3/5 360/3/5
f 364/3/5 363/3/5 362/3/5
f 365/3/5 363/3/5 364/3/5
f 368/3/5 367/3/5 366/3/5
f 369/3/5 367/3/5 368/3/5
f 372/3/5 371/3/5 370/3/5
f 373/3/5 371/3/5 372/3/5
f 376/1/5 375/1/5 374/1/5
f 377/1/5 375/1/5 376/1/5
f 378/1/5 376/1/5 374/1/5
f 379/1/5 376/1/5 378/1/5
f 382/2/5 381/2/5 380/2/5
f 383/2/5 381/2/5 382/2/5
f 384/4/6 385/4/6 387/4/6
f 385/8/6 386/8/6 388/8/6
f 387/4/6 385/4/6 388/4/6
f 388/8/6 386/8/6 389/8/6
f 390/4/6 391/4/6 393/4/6
f 391/8/6 392/8/6 394/8/6
f 393/4/6 391/4/6 394/4/6
f 394/8/6 392/8/6 395/8/6
f 396/8/6 397/8/6 402/8/6
f 397/4/6 398/4/6 403/4/6
f 402/8/6 397/8/6 403/8/6
f 403/4/6 398/4/6 404/4/6
f 399/4/6 400/4/6 405/4/6
f 400/8/6 401/8/6 406/8/6
f 405/4/6 400/4/6 406/4/6
f 406/8/6 401/8/6 407/8/6
f 408/4/6 409/4/6 410/4/6
f 410/4/6 409/4/6 411/4/6
f 412/4/6 413/4/6 415/4/6
f 413/8/6 414/8/6 416/8/6
f 415/4/6 413/4/6 416/4/6
f 416/8/6 414/8/6 417/8/6
f 418/2/6 419/2/6 420/2/6
f 420/2/6 419/2/6 421/2/6
f 422/4/6 423/4/6 425/4/6
f 423/8/6 424/8/6 426/8/6
f 425/4/6 423/4/6 426/4/6
f 426/8/6 424/8/6 427/8/6
f 428/8/6 429/8/6 430/8/6
f 430/8/6 429/8/6 431/8/6
f 431/8/6 429/8/6 432/8/6
f 433/8/6 434/8/6 435/8/6
f 435/8/6 434/8/6 436/8/6
f 437/1/6 438/1/6 440/1/6
f 440/1/6 438/1/6 441/1/6
f 439/8/6 440/8/6 441/8/6
f 441/1/6 438/1/6 442/1/6
f 439/8/6 441/8/6 443/8/6
f 443/8/6 441/8/6 444/8/6
f 445/8/6 446/8/6 447/8/6
f 447/8/6 446/8/6 448/8/6
f 449/3/6 450/3/6 451/3/6
f 451/3/6 450/3/6 452/3/6
f 453/7/6 454/7/6 456/7/6
f 456/7/6 454/7/6 457/7/6
f 455/3/6 456/3/6 458/3/6
f 456/3/6 457/3/6 458/3/6
f 458/3/6 457/3/6 459/3/6
f 460/3/6 461/3/6 462/3/6
f 462/3/6 461/3/6 463/3/6
f 464/3/6 465/3/6 466/3/6
f 466/3/6 465/3/6 467/3/6
f 468/1/6 469/1/6 470/1/6
f 470/1/6 469/1/6 471/1/6
f 472/2/6 473/2/6 474/2/6
f 474/2/6 473/2/6 475/2/6
