# MagicaVoxel @ Ephtracy

# material
mtllib MiddleRoadThing.mtl
usemtl palette

# normals
vn -1 0 0
vn 1 0 0
vn 0 0 1
vn 0 0 -1
vn 0 -1 0
vn 0 1 0

# texcoords
vt 0.966797 0.5
vt 0.982422 0.5
vt 0.986328 0.5

# verts
v -10 0 20
v -10 0 8
v -10 0 7
v -10 0 -20
v -10 1 8
v -10 1 7
v -10 2 20
v -10 2 -20
v -9 0 8
v -9 0 7
v -9 1 8
v -9 1 7
v -4 1 16
v -4 1 15
v -4 2 16
v -4 2 15
v -3 1 -9
v -3 1 -10
v -3 2 -9
v -3 2 -10
v -2 1 9
v -2 1 8
v -2 2 9
v -2 2 8
v -1 1 -1
v -1 1 -2
v -1 2 -1
v -1 2 -2
v 1 1 18
v 1 1 17
v 1 2 18
v 1 2 17
v 2 1 -14
v 2 1 -15
v 2 2 -14
v 2 2 -15
v 5 1 14
v 5 1 13
v 5 1 1
v 5 1 -0
v 5 2 14
v 5 2 13
v 5 2 1
v 5 2 -0
v -5 1 16
v -5 1 15
v -5 2 16
v -5 2 15
v -4 1 -9
v -4 1 -10
v -4 2 -9
v -4 2 -10
v -3 1 9
v -3 1 8
v -3 2 9
v -3 2 8
v -2 1 -1
v -2 1 -2
v -2 2 -1
v -2 2 -2
v 0 1 18
v 0 1 17
v 0 2 18
v 0 2 17
v 1 1 -14
v 1 1 -15
v 1 2 -14
v 1 2 -15
v 4 1 14
v 4 1 13
v 4 1 1
v 4 1 -0
v 4 2 14
v 4 2 13
v 4 2 1
v 4 2 -0
v 9 0 8
v 9 0 7
v 9 1 8
v 9 1 7
v 10 0 20
v 10 0 8
v 10 0 7
v 10 0 -20
v 10 1 8
v 10 1 7
v 10 2 20
v 10 2 -20
v -10 0 20
v -10 2 20
v -9 0 20
v -9 2 20
v 9 0 20
v 9 2 20
v 10 0 20
v 10 2 20
v 0 1 17
v 0 2 17
v 1 1 17
v 1 2 17
v -5 1 15
v -5 2 15
v -4 1 15
v -4 2 15
v 4 1 13
v 4 2 13
v 5 1 13
v 5 2 13
v -3 1 8
v -3 2 8
v -2 1 8
v -2 2 8
v -10 0 7
v -10 1 7
v -9 0 7
v -9 1 7
v 9 0 7
v 9 1 7
v 10 0 7
v 10 1 7
v 4 1 -0
v 4 2 -0
v 5 1 -0
v 5 2 -0
v -2 1 -2
v -2 2 -2
v -1 1 -2
v -1 2 -2
v -4 1 -10
v -4 2 -10
v -3 1 -10
v -3 2 -10
v 1 1 -15
v 1 2 -15
v 2 1 -15
v 2 2 -15
v 0 1 18
v 0 2 18
v 1 1 18
v 1 2 18
v -5 1 16
v -5 2 16
v -4 1 16
v -4 2 16
v 4 1 14
v 4 2 14
v 5 1 14
v 5 2 14
v -3 1 9
v -3 2 9
v -2 1 9
v -2 2 9
v -10 0 8
v -10 1 8
v -9 0 8
v -9 1 8
v 9 0 8
v 9 1 8
v 10 0 8
v 10 1 8
v 4 1 1
v 4 2 1
v 5 1 1
v 5 2 1
v -2 1 -1
v -2 2 -1
v -1 1 -1
v -1 2 -1
v -4 1 -9
v -4 2 -9
v -3 1 -9
v -3 2 -9
v 1 1 -14
v 1 2 -14
v 2 1 -14
v 2 2 -14
v -10 0 -20
v -10 2 -20
v -9 0 -20
v -9 2 -20
v 9 0 -20
v 9 2 -20
v 10 0 -20
v 10 2 -20
v -10 0 20
v -9 0 20
v 9 0 20
v 10 0 20
v -9 0 19
v 9 0 19
v -10 0 8
v -9 0 8
v 9 0 8
v 10 0 8
v -10 0 7
v -9 0 7
v 9 0 7
v 10 0 7
v -9 0 -19
v 9 0 -19
v -10 0 -20
v -9 0 -20
v 9 0 -20
v 10 0 -20
v -10 1 8
v -9 1 8
v 9 1 8
v 10 1 8
v -10 1 7
v -9 1 7
v 9 1 7
v 10 1 7
v 0 1 18
v 1 1 18
v 0 1 17
v 1 1 17
v -5 1 16
v -4 1 16
v -5 1 15
v -4 1 15
v 4 1 14
v 5 1 14
v 4 1 13
v 5 1 13
v -3 1 9
v -2 1 9
v -3 1 8
v -2 1 8
v 4 1 1
v 5 1 1
v 4 1 -0
v 5 1 -0
v -2 1 -1
v -1 1 -1
v -2 1 -2
v -1 1 -2
v -4 1 -9
v -3 1 -9
v -4 1 -10
v -3 1 -10
v 1 1 -14
v 2 1 -14
v 1 1 -15
v 2 1 -15
v -10 2 20
v -9 2 20
v 9 2 20
v 10 2 20
v 0 2 18
v 1 2 18
v 0 2 17
v 1 2 17
v -5 2 16
v -4 2 16
v -5 2 15
v -4 2 15
v 4 2 14
v 5 2 14
v 4 2 13
v 5 2 13
v -3 2 9
v -2 2 9
v -3 2 8
v -2 2 8
v 4 2 1
v 5 2 1
v 4 2 -0
v 5 2 -0
v -2 2 -1
v -1 2 -1
v -2 2 -2
v -1 2 -2
v -4 2 -9
v -3 2 -9
v -4 2 -10
v -3 2 -10
v 1 2 -14
v 2 2 -14
v 1 2 -15
v 2 2 -15
v -10 2 -20
v -9 2 -20
v 9 2 -20
v 10 2 -20

# faces
f 5/1/1 2/1/1 1/1/1
f 6/1/1 4/1/1 3/1/1
f 7/1/1 5/1/1 1/1/1
f 7/1/1 6/1/1 5/1/1
f 8/1/1 4/1/1 6/1/1
f 8/1/1 6/1/1 7/1/1
f 11/3/1 10/3/1 9/3/1
f 12/3/1 10/3/1 11/3/1
f 15/2/1 14/2/1 13/2/1
f 16/2/1 14/2/1 15/2/1
f 19/2/1 18/2/1 17/2/1
f 20/2/1 18/2/1 19/2/1
f 23/2/1 22/2/1 21/2/1
f 24/2/1 22/2/1 23/2/1
f 27/2/1 26/2/1 25/2/1
f 28/2/1 26/2/1 27/2/1
f 31/2/1 30/2/1 29/2/1
f 32/2/1 30/2/1 31/2/1
f 35/2/1 34/2/1 33/2/1
f 36/2/1 34/2/1 35/2/1
f 41/2/1 38/2/1 37/2/1
f 42/2/1 38/2/1 41/2/1
f 43/2/1 40/2/1 39/2/1
f 44/2/1 40/2/1 43/2/1
f 45/2/2 46/2/2 47/2/2
f 47/2/2 46/2/2 48/2/2
f 49/2/2 50/2/2 51/2/2
f 51/2/2 50/2/2 52/2/2
f 53/2/2 54/2/2 55/2/2
f 55/2/2 54/2/2 56/2/2
f 57/2/2 58/2/2 59/2/2
f 59/2/2 58/2/2 60/2/2
f 61/2/2 62/2/2 63/2/2
f 63/2/2 62/2/2 64/2/2
f 65/2/2 66/2/2 67/2/2
f 67/2/2 66/2/2 68/2/2
f 69/2/2 70/2/2 73/2/2
f 73/2/2 70/2/2 74/2/2
f 71/2/2 72/2/2 75/2/2
f 75/2/2 72/2/2 76/2/2
f 77/3/2 78/3/2 79/3/2
f 79/3/2 78/3/2 80/3/2
f 81/1/2 82/1/2 85/1/2
f 83/1/2 84/1/2 86/1/2
f 81/1/2 85/1/2 87/1/2
f 85/1/2 86/1/2 87/1/2
f 86/1/2 84/1/2 88/1/2
f 87/1/2 86/1/2 88/1/2
f 91/1/3 90/1/3 89/1/3
f 92/1/3 90/1/3 91/1/3
f 93/2/3 92/2/3 91/2/3
f 94/2/3 92/2/3 93/2/3
f 95/1/3 94/1/3 93/1/3
f 96/1/3 94/1/3 95/1/3
f 99/2/3 98/2/3 97/2/3
f 100/2/3 98/2/3 99/2/3
f 103/2/3 102/2/3 101/2/3
f 104/2/3 102/2/3 103/2/3
f 107/2/3 106/2/3 105/2/3
f 108/2/3 106/2/3 107/2/3
f 111/2/3 110/2/3 109/2/3
f 112/2/3 110/2/3 111/2/3
f 115/1/3 114/1/3 113/1/3
f 116/1/3 114/1/3 115/1/3
f 119/1/3 118/1/3 117/1/3
f 120/1/3 118/1/3 119/1/3
f 123/2/3 122/2/3 121/2/3
f 124/2/3 122/2/3 123/2/3
f 127/2/3 126/2/3 125/2/3
f 128/2/3 126/2/3 127/2/3
f 131/2/3 130/2/3 129/2/3
f 132/2/3 130/2/3 131/2/3
f 135/2/3 134/2/3 133/2/3
f 136/2/3 134/2/3 135/2/3
f 137/2/4 138/2/4 139/2/4
f 139/2/4 138/2/4 140/2/4
f 141/2/4 142/2/4 143/2/4
f 143/2/4 142/2/4 144/2/4
f 145/2/4 146/2/4 147/2/4
f 147/2/4 146/2/4 148/2/4
f 149/2/4 150/2/4 151/2/4
f 151/2/4 150/2/4 152/2/4
f 153/1/4 154/1/4 155/1/4
f 155/1/4 154/1/4 156/1/4
f 157/1/4 158/1/4 159/1/4
f 159/1/4 158/1/4 160/1/4
f 161/2/4 162/2/4 163/2/4
f 163/2/4 162/2/4 164/2/4
f 165/2/4 166/2/4 167/2/4
f 167/2/4 166/2/4 168/2/4
f 169/2/4 170/2/4 171/2/4
f 171/2/4 170/2/4 172/2/4
f 173/2/4 174/2/4 175/2/4
f 175/2/4 174/2/4 176/2/4
f 177/1/4 178/1/4 179/1/4
f 179/1/4 178/1/4 180/1/4
f 179/2/4 180/2/4 181/2/4
f 181/2/4 180/2/4 182/2/4
f 181/1/4 182/1/4 183/1/4
f 183/1/4 182/1/4 184/1/4
f 189/1/5 186/1/5 185/1/5
f 189/2/5 187/2/5 186/2/5
f 190/1/5 188/1/5 187/1/5
f 190/2/5 187/2/5 189/2/5
f 191/1/5 189/1/5 185/1/5
f 192/3/5 190/3/5 189/3/5
f 192/1/5 189/1/5 191/1/5
f 193/1/5 188/1/5 190/1/5
f 193/3/5 190/3/5 192/3/5
f 194/1/5 188/1/5 193/1/5
f 196/3/5 193/3/5 192/3/5
f 197/3/5 193/3/5 196/3/5
f 199/1/5 196/1/5 195/1/5
f 199/3/5 197/3/5 196/3/5
f 200/1/5 198/1/5 197/1/5
f 200/3/5 197/3/5 199/3/5
f 201/1/5 199/1/5 195/1/5
f 202/2/5 200/2/5 199/2/5
f 202/1/5 199/1/5 201/1/5
f 203/1/5 198/1/5 200/1/5
f 203/2/5 200/2/5 202/2/5
f 204/1/5 198/1/5 203/1/5
f 209/1/5 206/1/5 205/1/5
f 210/1/5 206/1/5 209/1/5
f 211/1/5 208/1/5 207/1/5
f 212/1/5 208/1/5 211/1/5
f 213/3/6 214/3/6 215/3/6
f 215/3/6 214/3/6 216/3/6
f 217/3/6 218/3/6 219/3/6
f 219/3/6 218/3/6 220/3/6
f 221/3/6 222/3/6 223/3/6
f 223/3/6 222/3/6 224/3/6
f 225/3/6 226/3/6 227/3/6
f 227/3/6 226/3/6 228/3/6
f 229/3/6 230/3/6 231/3/6
f 231/3/6 230/3/6 232/3/6
f 233/3/6 234/3/6 235/3/6
f 235/3/6 234/3/6 236/3/6
f 237/3/6 238/3/6 239/3/6
f 239/3/6 238/3/6 240/3/6
f 241/3/6 242/3/6 243/3/6
f 243/3/6 242/3/6 244/3/6
f 246/2/6 247/2/6 249/2/6
f 249/2/6 247/2/6 250/2/6
f 246/2/6 249/2/6 251/2/6
f 250/2/6 247/2/6 252/2/6
f 246/2/6 251/2/6 253/2/6
f 251/2/6 252/2/6 253/2/6
f 253/2/6 252/2/6 254/2/6
f 246/2/6 253/2/6 255/2/6
f 254/2/6 252/2/6 256/2/6
f 252/2/6 247/2/6 257/2/6
f 255/2/6 256/2/6 257/2/6
f 256/2/6 252/2/6 257/2/6
f 257/2/6 247/2/6 258/2/6
f 255/2/6 257/2/6 259/2/6
f 258/2/6 247/2/6 260/2/6
f 255/2/6 259/2/6 261/2/6
f 259/2/6 260/2/6 261/2/6
f 261/2/6 260/2/6 262/2/6
f 255/2/6 261/2/6 263/2/6
f 262/2/6 260/2/6 264/2/6
f 264/2/6 260/2/6 265/2/6
f 263/2/6 264/2/6 265/2/6
f 260/2/6 247/2/6 266/2/6
f 265/2/6 260/2/6 266/2/6
f 263/2/6 265/2/6 267/2/6
f 266/2/6 247/2/6 268/2/6
f 263/2/6 267/2/6 269/2/6
f 267/2/6 268/2/6 269/2/6
f 269/2/6 268/2/6 270/2/6
f 263/2/6 269/2/6 271/2/6
f 270/2/6 268/2/6 272/2/6
f 255/2/6 263/2/6 273/2/6
f 271/2/6 272/2/6 273/2/6
f 263/2/6 271/2/6 273/2/6
f 273/2/6 272/2/6 274/2/6
f 255/2/6 273/2/6 275/2/6
f 274/2/6 272/2/6 276/2/6
f 272/2/6 268/2/6 277/2/6
f 275/2/6 276/2/6 277/2/6
f 276/2/6 272/2/6 277/2/6
f 277/2/6 268/2/6 278/2/6
f 275/2/6 277/2/6 279/2/6
f 278/2/6 268/2/6 280/2/6
f 245/1/6 246/1/6 281/1/6
f 279/2/6 280/2/6 282/2/6
f 281/1/6 246/1/6 282/1/6
f 246/2/6 255/2/6 282/2/6
f 255/2/6 275/2/6 282/2/6
f 275/2/6 279/2/6 282/2/6
f 247/1/6 248/1/6 283/1/6
f 282/2/6 280/2/6 283/2/6
f 280/2/6 268/2/6 283/2/6
f 268/2/6 247/2/6 283/2/6
f 283/1/6 248/1/6 284/1/6
