# MagicaVoxel @ Ephtracy

# material
mtllib MiddleRoadThing2.mtl
usemtl palette

# normals
vn -1 0 0
vn 1 0 0
vn 0 0 1
vn 0 0 -1
vn 0 -1 0
vn 0 1 0

# texcoords
vt 0.966797 0.5
vt 0.982422 0.5
vt 0.986328 0.5

# verts
v -10 0 20
v -10 0 8
v -10 0 7
v -10 0 -20
v -10 1 8
v -10 1 7
v -10 2 20
v -10 2 -20
v -9 0 8
v -9 0 7
v -9 1 8
v -9 1 7
v -4 1 16
v -4 1 15
v -4 2 16
v -4 2 15
v -3 1 -9
v -3 1 -10
v -3 2 -9
v -3 2 -10
v -2 1 9
v -2 1 8
v -2 2 9
v -2 2 8
v -1 1 -1
v -1 1 -2
v -1 2 -1
v -1 2 -2
v 1 1 18
v 1 1 17
v 1 2 18
v 1 2 17
v 2 1 -14
v 2 1 -15
v 2 2 -14
v 2 2 -15
v 5 1 14
v 5 1 13
v 5 1 1
v 5 1 -0
v 5 2 14
v 5 2 13
v 5 2 1
v 5 2 -0
v -5 1 16
v -5 1 15
v -5 2 16
v -5 2 15
v -4 1 -9
v -4 1 -10
v -4 2 -9
v -4 2 -10
v -3 1 9
v -3 1 8
v -3 2 9
v -3 2 8
v -2 1 -1
v -2 1 -2
v -2 2 -1
v -2 2 -2
v 0 1 18
v 0 1 17
v 0 2 18
v 0 2 17
v 1 1 -14
v 1 1 -15
v 1 2 -14
v 1 2 -15
v 4 1 14
v 4 1 13
v 4 1 1
v 4 1 -0
v 4 2 14
v 4 2 13
v 4 2 1
v 4 2 -0
v 9 0 8
v 9 0 7
v 9 1 20
v 9 1 19
v 9 1 8
v 9 1 7
v 9 2 20
v 9 2 19
v 10 0 20
v 10 0 8
v 10 0 7
v 10 0 -20
v 10 1 20
v 10 1 19
v 10 1 8
v 10 1 7
v 10 2 19
v 10 2 -20
v -10 0 20
v -10 2 20
v 9 1 20
v 9 2 20
v 10 0 20
v 10 1 20
v 9 1 19
v 9 2 19
v 10 1 19
v 10 2 19
v 0 1 17
v 0 2 17
v 1 1 17
v 1 2 17
v -5 1 15
v -5 2 15
v -4 1 15
v -4 2 15
v 4 1 13
v 4 2 13
v 5 1 13
v 5 2 13
v -3 1 8
v -3 2 8
v -2 1 8
v -2 2 8
v -10 0 7
v -10 1 7
v -9 0 7
v -9 1 7
v 9 0 7
v 9 1 7
v 10 0 7
v 10 1 7
v 4 1 -0
v 4 2 -0
v 5 1 -0
v 5 2 -0
v -2 1 -2
v -2 2 -2
v -1 1 -2
v -1 2 -2
v -4 1 -10
v -4 2 -10
v -3 1 -10
v -3 2 -10
v 1 1 -15
v 1 2 -15
v 2 1 -15
v 2 2 -15
v 0 1 18
v 0 2 18
v 1 1 18
v 1 2 18
v -5 1 16
v -5 2 16
v -4 1 16
v -4 2 16
v 4 1 14
v 4 2 14
v 5 1 14
v 5 2 14
v -3 1 9
v -3 2 9
v -2 1 9
v -2 2 9
v -10 0 8
v -10 1 8
v -9 0 8
v -9 1 8
v 9 0 8
v 9 1 8
v 10 0 8
v 10 1 8
v 4 1 1
v 4 2 1
v 5 1 1
v 5 2 1
v -2 1 -1
v -2 2 -1
v -1 1 -1
v -1 2 -1
v -4 1 -9
v -4 2 -9
v -3 1 -9
v -3 2 -9
v 1 1 -14
v 1 2 -14
v 2 1 -14
v 2 2 -14
v -10 0 -20
v -10 2 -20
v -9 0 -20
v -9 1 -20
v -9 2 -20
v 9 0 -20
v 9 1 -20
v 9 2 -20
v 10 0 -20
v 10 2 -20
v -10 0 20
v 10 0 20
v -9 0 19
v 9 0 19
v -10 0 8
v -9 0 8
v 9 0 8
v 10 0 8
v -10 0 7
v -9 0 7
v 9 0 7
v 10 0 7
v -10 0 -20
v -9 0 -20
v 9 0 -20
v 10 0 -20
v -10 1 8
v -9 1 8
v 9 1 8
v 10 1 8
v -10 1 7
v -9 1 7
v 9 1 7
v 10 1 7
v 9 1 20
v 10 1 20
v 9 1 19
v 10 1 19
v 0 1 18
v 1 1 18
v 0 1 17
v 1 1 17
v -5 1 16
v -4 1 16
v -5 1 15
v -4 1 15
v 4 1 14
v 5 1 14
v 4 1 13
v 5 1 13
v -3 1 9
v -2 1 9
v -3 1 8
v -2 1 8
v 4 1 1
v 5 1 1
v 4 1 -0
v 5 1 -0
v -2 1 -1
v -1 1 -1
v -2 1 -2
v -1 1 -2
v -4 1 -9
v -3 1 -9
v -4 1 -10
v -3 1 -10
v 1 1 -14
v 2 1 -14
v 1 1 -15
v 2 1 -15
v -10 2 20
v 9 2 20
v -9 2 19
v 9 2 19
v 10 2 19
v 0 2 18
v 1 2 18
v 0 2 17
v 1 2 17
v -5 2 16
v -4 2 16
v -5 2 15
v -4 2 15
v 4 2 14
v 5 2 14
v 4 2 13
v 5 2 13
v -3 2 9
v -2 2 9
v -3 2 8
v -2 2 8
v 4 2 1
v 5 2 1
v 4 2 -0
v 5 2 -0
v -2 2 -1
v -1 2 -1
v -2 2 -2
v -1 2 -2
v -4 2 -9
v -3 2 -9
v -4 2 -10
v -3 2 -10
v 1 2 -14
v 2 2 -14
v 1 2 -15
v 2 2 -15
v -10 2 -20
v -9 2 -20
v 9 2 -20
v 10 2 -20

# faces
f 5/1/1 2/1/1 1/1/1
f 6/1/1 4/1/1 3/1/1
f 7/1/1 5/1/1 1/1/1
f 7/1/1 6/1/1 5/1/1
f 8/1/1 4/1/1 6/1/1
f 8/1/1 6/1/1 7/1/1
f 11/3/1 10/3/1 9/3/1
f 12/3/1 10/3/1 11/3/1
f 15/2/1 14/2/1 13/2/1
f 16/2/1 14/2/1 15/2/1
f 19/2/1 18/2/1 17/2/1
f 20/2/1 18/2/1 19/2/1
f 23/2/1 22/2/1 21/2/1
f 24/2/1 22/2/1 23/2/1
f 27/2/1 26/2/1 25/2/1
f 28/2/1 26/2/1 27/2/1
f 31/2/1 30/2/1 29/2/1
f 32/2/1 30/2/1 31/2/1
f 35/2/1 34/2/1 33/2/1
f 36/2/1 34/2/1 35/2/1
f 41/2/1 38/2/1 37/2/1
f 42/2/1 38/2/1 41/2/1
f 43/2/1 40/2/1 39/2/1
f 44/2/1 40/2/1 43/2/1
f 45/2/2 46/2/2 47/2/2
f 47/2/2 46/2/2 48/2/2
f 49/2/2 50/2/2 51/2/2
f 51/2/2 50/2/2 52/2/2
f 53/2/2 54/2/2 55/2/2
f 55/2/2 54/2/2 56/2/2
f 57/2/2 58/2/2 59/2/2
f 59/2/2 58/2/2 60/2/2
f 61/2/2 62/2/2 63/2/2
f 63/2/2 62/2/2 64/2/2
f 65/2/2 66/2/2 67/2/2
f 67/2/2 66/2/2 68/2/2
f 69/2/2 70/2/2 73/2/2
f 73/2/2 70/2/2 74/2/2
f 71/2/2 72/2/2 75/2/2
f 75/2/2 72/2/2 76/2/2
f 77/3/2 78/3/2 81/3/2
f 81/3/2 78/3/2 82/3/2
f 79/1/2 80/1/2 83/1/2
f 83/1/2 80/1/2 84/1/2
f 85/1/2 86/1/2 89/1/2
f 89/1/2 86/1/2 90/1/2
f 90/1/2 86/1/2 91/1/2
f 87/1/2 88/1/2 92/1/2
f 90/1/2 91/1/2 93/1/2
f 91/1/2 92/1/2 93/1/2
f 92/1/2 88/1/2 94/1/2
f 93/1/2 92/1/2 94/1/2
f 97/1/3 96/1/3 95/1/3
f 98/1/3 96/1/3 97/1/3
f 99/1/3 97/1/3 95/1/3
f 100/1/3 97/1/3 99/1/3
f 103/1/3 102/1/3 101/1/3
f 104/1/3 102/1/3 103/1/3
f 107/2/3 106/2/3 105/2/3
f 108/2/3 106/2/3 107/2/3
f 111/2/3 110/2/3 109/2/3
f 112/2/3 110/2/3 111/2/3
f 115/2/3 114/2/3 113/2/3
f 116/2/3 114/2/3 115/2/3
f 119/2/3 118/2/3 117/2/3
f 120/2/3 118/2/3 119/2/3
f 123/1/3 122/1/3 121/1/3
f 124/1/3 122/1/3 123/1/3
f 127/1/3 126/1/3 125/1/3
f 128/1/3 126/1/3 127/1/3
f 131/2/3 130/2/3 129/2/3
f 132/2/3 130/2/3 131/2/3
f 135/2/3 134/2/3 133/2/3
f 136/2/3 134/2/3 135/2/3
f 139/2/3 138/2/3 137/2/3
f 140/2/3 138/2/3 139/2/3
f 143/2/3 142/2/3 141/2/3
f 144/2/3 142/2/3 143/2/3
f 145/2/4 146/2/4 147/2/4
f 147/2/4 146/2/4 148/2/4
f 149/2/4 150/2/4 151/2/4
f 151/2/4 150/2/4 152/2/4
f 153/2/4 154/2/4 155/2/4
f 155/2/4 154/2/4 156/2/4
f 157/2/4 158/2/4 159/2/4
f 159/2/4 158/2/4 160/2/4
f 161/1/4 162/1/4 163/1/4
f 163/1/4 162/1/4 164/1/4
f 165/1/4 166/1/4 167/1/4
f 167/1/4 166/1/4 168/1/4
f 169/2/4 170/2/4 171/2/4
f 171/2/4 170/2/4 172/2/4
f 173/2/4 174/2/4 175/2/4
f 175/2/4 174/2/4 176/2/4
f 177/2/4 178/2/4 179/2/4
f 179/2/4 178/2/4 180/2/4
f 181/2/4 182/2/4 183/2/4
f 183/2/4 182/2/4 184/2/4
f 185/1/4 186/1/4 187/1/4
f 187/1/4 186/1/4 188/1/4
f 188/1/4 186/1/4 189/1/4
f 187/3/4 188/3/4 190/3/4
f 188/2/4 189/2/4 191/2/4
f 190/3/4 188/3/4 191/3/4
f 191/2/4 189/2/4 192/2/4
f 190/1/4 191/1/4 193/1/4
f 191/1/4 192/1/4 193/1/4
f 193/1/4 192/1/4 194/1/4
f 197/1/5 196/1/5 195/1/5
f 198/1/5 196/1/5 197/1/5
f 199/1/5 197/1/5 195/1/5
f 200/3/5 198/3/5 197/3/5
f 200/1/5 197/1/5 199/1/5
f 201/1/5 196/1/5 198/1/5
f 201/3/5 198/3/5 200/3/5
f 202/1/5 196/1/5 201/1/5
f 204/3/5 201/3/5 200/3/5
f 205/3/5 201/3/5 204/3/5
f 207/1/5 204/1/5 203/1/5
f 208/3/5 205/3/5 204/3/5
f 208/1/5 204/1/5 207/1/5
f 209/1/5 206/1/5 205/1/5
f 209/3/5 205/3/5 208/3/5
f 210/1/5 206/1/5 209/1/5
f 215/1/5 212/1/5 211/1/5
f 216/1/5 212/1/5 215/1/5
f 217/1/5 214/1/5 213/1/5
f 218/1/5 214/1/5 217/1/5
f 219/1/6 220/1/6 221/1/6
f 221/1/6 220/1/6 222/1/6
f 223/3/6 224/3/6 225/3/6
f 225/3/6 224/3/6 226/3/6
f 227/3/6 228/3/6 229/3/6
f 229/3/6 228/3/6 230/3/6
f 231/3/6 232/3/6 233/3/6
f 233/3/6 232/3/6 234/3/6
f 235/3/6 236/3/6 237/3/6
f 237/3/6 236/3/6 238/3/6
f 239/3/6 240/3/6 241/3/6
f 241/3/6 240/3/6 242/3/6
f 243/3/6 244/3/6 245/3/6
f 245/3/6 244/3/6 246/3/6
f 247/3/6 248/3/6 249/3/6
f 249/3/6 248/3/6 250/3/6
f 251/3/6 252/3/6 253/3/6
f 253/3/6 252/3/6 254/3/6
f 255/1/6 256/1/6 257/1/6
f 257/1/6 256/1/6 258/1/6
f 257/2/6 258/2/6 260/2/6
f 260/2/6 258/2/6 261/2/6
f 257/2/6 260/2/6 262/2/6
f 261/2/6 258/2/6 263/2/6
f 257/2/6 262/2/6 264/2/6
f 262/2/6 263/2/6 264/2/6
f 264/2/6 263/2/6 265/2/6
f 257/2/6 264/2/6 266/2/6
f 265/2/6 263/2/6 267/2/6
f 263/2/6 258/2/6 268/2/6
f 266/2/6 267/2/6 268/2/6
f 267/2/6 263/2/6 268/2/6
f 268/2/6 258/2/6 269/2/6
f 266/2/6 268/2/6 270/2/6
f 269/2/6 258/2/6 271/2/6
f 266/2/6 270/2/6 272/2/6
f 270/2/6 271/2/6 272/2/6
f 272/2/6 271/2/6 273/2/6
f 266/2/6 272/2/6 274/2/6
f 273/2/6 271/2/6 275/2/6
f 275/2/6 271/2/6 276/2/6
f 274/2/6 275/2/6 276/2/6
f 271/2/6 258/2/6 277/2/6
f 276/2/6 271/2/6 277/2/6
f 274/2/6 276/2/6 278/2/6
f 277/2/6 258/2/6 279/2/6
f 274/2/6 278/2/6 280/2/6
f 278/2/6 279/2/6 280/2/6
f 280/2/6 279/2/6 281/2/6
f 274/2/6 280/2/6 282/2/6
f 281/2/6 279/2/6 283/2/6
f 266/2/6 274/2/6 284/2/6
f 282/2/6 283/2/6 284/2/6
f 274/2/6 282/2/6 284/2/6
f 284/2/6 283/2/6 285/2/6
f 266/2/6 284/2/6 286/2/6
f 285/2/6 283/2/6 287/2/6
f 283/2/6 279/2/6 288/2/6
f 286/2/6 287/2/6 288/2/6
f 287/2/6 283/2/6 288/2/6
f 288/2/6 279/2/6 289/2/6
f 286/2/6 288/2/6 290/2/6
f 289/2/6 279/2/6 291/2/6
f 255/1/6 257/1/6 292/1/6
f 290/2/6 291/2/6 293/2/6
f 292/1/6 257/1/6 293/1/6
f 257/2/6 266/2/6 293/2/6
f 266/2/6 286/2/6 293/2/6
f 286/2/6 290/2/6 293/2/6
f 258/1/6 259/1/6 294/1/6
f 293/2/6 291/2/6 294/2/6
f 291/2/6 279/2/6 294/2/6
f 279/2/6 258/2/6 294/2/6
f 294/1/6 259/1/6 295/1/6
