# MagicaVoxel @ Ephtracy

# material
mtllib Road.mtl
usemtl palette

# normals
vn -1 0 0
vn 1 0 0
vn 0 0 1
vn 0 0 -1
vn 0 -1 0
vn 0 1 0

# texcoords
vt 0.185547 0.5
vt 0.990234 0.5
vt 0.994141 0.5

# verts
v -20 0 20
v -20 0 -20
v -20 1 20
v -20 1 -20
v 20 0 20
v 20 0 -20
v 20 1 20
v 20 1 -20
v -20 0 20
v -20 1 20
v -4 0 20
v -4 1 20
v 6 0 20
v 6 1 20
v 20 0 20
v 20 1 20
v -20 0 -20
v -20 1 -20
v -3 0 -20
v -3 1 -20
v 11 0 -20
v 11 1 -20
v 20 0 -20
v 20 1 -20
v -20 0 20
v -4 0 20
v 6 0 20
v 20 0 20
v -4 0 6
v -1 0 6
v 1 0 6
v 6 0 6
v -3 0 -8
v -1 0 -8
v 1 0 -8
v 11 0 -8
v -20 0 -20
v -3 0 -20
v 11 0 -20
v 20 0 -20
v -20 1 20
v -4 1 20
v 6 1 20
v 20 1 20
v -4 1 6
v -1 1 6
v 1 1 6
v 6 1 6
v -3 1 -8
v -1 1 -8
v 1 1 -8
v 11 1 -8
v -20 1 -20
v -3 1 -20
v 11 1 -20
v 20 1 -20

# faces
f 3/3/1 2/3/1 1/3/1
f 4/3/1 2/3/1 3/3/1
f 5/3/2 6/3/2 7/3/2
f 7/3/2 6/3/2 8/3/2
f 11/3/3 10/3/3 9/3/3
f 12/3/3 10/3/3 11/3/3
f 13/2/3 12/2/3 11/2/3
f 14/2/3 12/2/3 13/2/3
f 15/3/3 14/3/3 13/3/3
f 16/3/3 14/3/3 15/3/3
f 17/3/4 18/3/4 19/3/4
f 19/3/4 18/3/4 20/3/4
f 19/2/4 20/2/4 21/2/4
f 21/2/4 20/2/4 22/2/4
f 21/3/4 22/3/4 23/3/4
f 23/3/4 22/3/4 24/3/4
f 29/3/5 26/3/5 25/3/5
f 29/2/5 27/2/5 26/2/5
f 30/2/5 27/2/5 29/2/5
f 31/2/5 27/2/5 30/2/5
f 32/3/5 28/3/5 27/3/5
f 32/2/5 27/2/5 31/2/5
f 33/3/5 30/3/5 29/3/5
f 34/1/5 31/1/5 30/1/5
f 34/3/5 30/3/5 33/3/5
f 35/3/5 32/3/5 31/3/5
f 35/1/5 31/1/5 34/1/5
f 36/3/5 28/3/5 32/3/5
f 36/3/5 32/3/5 35/3/5
f 37/3/5 33/3/5 29/3/5
f 37/3/5 29/3/5 25/3/5
f 38/2/5 36/2/5 35/2/5
f 38/3/5 33/3/5 37/3/5
f 38/2/5 35/2/5 34/2/5
f 38/2/5 34/2/5 33/2/5
f 39/3/5 28/3/5 36/3/5
f 39/2/5 36/2/5 38/2/5
f 40/3/5 28/3/5 39/3/5
f 41/3/6 42/3/6 45/3/6
f 42/2/6 43/2/6 45/2/6
f 45/2/6 43/2/6 46/2/6
f 46/2/6 43/2/6 47/2/6
f 43/3/6 44/3/6 48/3/6
f 47/2/6 43/2/6 48/2/6
f 45/3/6 46/3/6 49/3/6
f 46/1/6 47/1/6 50/1/6
f 49/3/6 46/3/6 50/3/6
f 47/3/6 48/3/6 51/3/6
f 50/1/6 47/1/6 51/1/6
f 48/3/6 44/3/6 52/3/6
f 51/3/6 48/3/6 52/3/6
f 45/3/6 49/3/6 53/3/6
f 41/3/6 45/3/6 53/3/6
f 51/2/6 52/2/6 54/2/6
f 53/3/6 49/3/6 54/3/6
f 50/2/6 51/2/6 54/2/6
f 49/2/6 50/2/6 54/2/6
f 52/3/6 44/3/6 55/3/6
f 54/2/6 52/2/6 55/2/6
f 55/3/6 44/3/6 56/3/6
