# MagicaVoxel @ Ephtracy

# material
mtllib Sign.mtl
usemtl palette

# normals
vn -1 0 0
vn 1 0 0
vn 0 0 1
vn 0 0 -1
vn 0 -1 0
vn 0 1 0

# texcoords
vt 0.306641 0.5
vt 0.806641 0.5
vt 0.962891 0.5
vt 0.966797 0.5
vt 0.986328 0.5

# verts
v -3 0 4
v -3 0 -1
v -3 1 4
v -3 1 -1
v -1 1 2
v -1 1 1
v -1 16 6
v -1 16 2
v -1 16 1
v -1 16 -3
v -1 17 4
v -1 17 3
v -1 17 2
v -1 17 -0
v -1 17 -1
v -1 17 -2
v -1 18 4
v -1 18 3
v -1 18 2
v -1 18 -0
v -1 18 -1
v -1 18 -2
v -1 19 3
v -1 19 -0
v -1 19 -1
v -1 19 -2
v -1 20 3
v -1 20 -0
v -1 20 -1
v -1 20 -2
v -1 21 6
v -1 21 -3
v 0 1 2
v 0 1 1
v 0 16 6
v 0 16 2
v 0 16 1
v 0 16 -3
v 0 17 4
v 0 17 3
v 0 17 2
v 0 17 -0
v 0 17 -1
v 0 17 -2
v 0 18 4
v 0 18 3
v 0 18 2
v 0 18 -0
v 0 18 -1
v 0 18 -2
v 0 19 3
v 0 19 -0
v 0 19 -1
v 0 19 -2
v 0 20 3
v 0 20 -0
v 0 20 -1
v 0 20 -2
v 0 21 6
v 0 21 -3
v 2 0 4
v 2 0 -1
v 2 1 4
v 2 1 -1
v -1 16 6
v -1 21 6
v 0 16 6
v 0 21 6
v -3 0 4
v -3 1 4
v 2 0 4
v 2 1 4
v -1 1 2
v -1 16 2
v 0 1 2
v 0 16 2
v -1 1 1
v -1 16 1
v 0 1 1
v 0 16 1
v -3 0 -1
v -3 1 -1
v 2 0 -1
v 2 1 -1
v -1 16 -3
v -1 21 -3
v 0 16 -3
v 0 21 -3
v -3 0 4
v 2 0 4
v -1 0 2
v 0 0 2
v -1 0 1
v 0 0 1
v -3 0 -1
v 2 0 -1
v -1 16 6
v 0 16 6
v -1 16 2
v 0 16 2
v -1 16 1
v 0 16 1
v -1 16 -3
v 0 16 -3
v -3 1 4
v 2 1 4
v -1 1 2
v 0 1 2
v -1 1 1
v 0 1 1
v -3 1 -1
v 2 1 -1
v -1 21 6
v 0 21 6
v -1 21 -3
v 0 21 -3

# faces
f 3/5/1 2/5/1 1/5/1
f 4/5/1 2/5/1 3/5/1
f 8/4/1 6/4/1 5/4/1
f 9/4/1 6/4/1 8/4/1
f 11/2/1 8/2/1 7/2/1
f 11/2/1 10/2/1 9/2/1
f 11/2/1 9/2/1 8/2/1
f 12/2/1 10/2/1 11/2/1
f 13/2/1 10/2/1 12/2/1
f 14/2/1 10/2/1 13/2/1
f 15/2/1 10/2/1 14/2/1
f 16/2/1 10/2/1 15/2/1
f 17/2/1 11/2/1 7/2/1
f 17/3/1 12/3/1 11/3/1
f 18/2/1 13/2/1 12/2/1
f 18/3/1 12/3/1 17/3/1
f 19/3/1 14/3/1 13/3/1
f 19/2/1 13/2/1 18/2/1
f 20/2/1 15/2/1 14/2/1
f 20/3/1 14/3/1 19/3/1
f 21/3/1 16/3/1 15/3/1
f 21/2/1 15/2/1 20/2/1
f 22/2/1 10/2/1 16/2/1
f 22/3/1 16/3/1 21/3/1
f 23/2/1 21/2/1 20/2/1
f 23/2/1 20/2/1 19/2/1
f 23/2/1 22/2/1 21/2/1
f 23/2/1 19/2/1 18/2/1
f 23/2/1 18/2/1 17/2/1
f 24/2/1 22/2/1 23/2/1
f 25/2/1 22/2/1 24/2/1
f 26/2/1 10/2/1 22/2/1
f 26/2/1 22/2/1 25/2/1
f 27/2/1 23/2/1 17/2/1
f 27/3/1 24/3/1 23/3/1
f 28/2/1 25/2/1 24/2/1
f 28/3/1 24/3/1 27/3/1
f 29/3/1 26/3/1 25/3/1
f 29/2/1 25/2/1 28/2/1
f 30/2/1 10/2/1 26/2/1
f 30/3/1 26/3/1 29/3/1
f 31/2/1 27/2/1 17/2/1
f 31/2/1 17/2/1 7/2/1
f 31/2/1 30/2/1 29/2/1
f 31/2/1 28/2/1 27/2/1
f 31/2/1 29/2/1 28/2/1
f 32/2/1 10/2/1 30/2/1
f 32/2/1 30/2/1 31/2/1
f 33/4/2 34/4/2 36/4/2
f 36/4/2 34/4/2 37/4/2
f 35/2/2 36/2/2 39/2/2
f 37/2/2 38/2/2 39/2/2
f 36/2/2 37/2/2 39/2/2
f 39/2/2 38/2/2 40/2/2
f 40/2/2 38/2/2 41/2/2
f 41/2/2 38/2/2 42/2/2
f 42/2/2 38/2/2 43/2/2
f 43/2/2 38/2/2 44/2/2
f 35/2/2 39/2/2 45/2/2
f 39/3/2 40/3/2 45/3/2
f 40/2/2 41/2/2 46/2/2
f 45/3/2 40/3/2 46/3/2
f 41/3/2 42/3/2 47/3/2
f 46/2/2 41/2/2 47/2/2
f 42/2/2 43/2/2 48/2/2
f 47/3/2 42/3/2 48/3/2
f 43/3/2 44/3/2 49/3/2
f 48/2/2 43/2/2 49/2/2
f 44/2/2 38/2/2 50/2/2
f 49/3/2 44/3/2 50/3/2
f 48/2/2 49/2/2 51/2/2
f 47/2/2 48/2/2 51/2/2
f 49/2/2 50/2/2 51/2/2
f 46/2/2 47/2/2 51/2/2
f 45/2/2 46/2/2 51/2/2
f 51/2/2 50/2/2 52/2/2
f 52/2/2 50/2/2 53/2/2
f 50/2/2 38/2/2 54/2/2
f 53/2/2 50/2/2 54/2/2
f 45/2/2 51/2/2 55/2/2
f 51/3/2 52/3/2 55/3/2
f 52/2/2 53/2/2 56/2/2
f 55/3/2 52/3/2 56/3/2
f 53/3/2 54/3/2 57/3/2
f 56/2/2 53/2/2 57/2/2
f 54/2/2 38/2/2 58/2/2
f 57/3/2 54/3/2 58/3/2
f 45/2/2 55/2/2 59/2/2
f 35/2/2 45/2/2 59/2/2
f 57/2/2 58/2/2 59/2/2
f 55/2/2 56/2/2 59/2/2
f 56/2/2 57/2/2 59/2/2
f 58/2/2 38/2/2 60/2/2
f 59/2/2 58/2/2 60/2/2
f 61/5/2 62/5/2 63/5/2
f 63/5/2 62/5/2 64/5/2
f 67/2/3 66/2/3 65/2/3
f 68/2/3 66/2/3 67/2/3
f 71/5/3 70/5/3 69/5/3
f 72/5/3 70/5/3 71/5/3
f 75/4/3 74/4/3 73/4/3
f 76/4/3 74/4/3 75/4/3
f 77/4/4 78/4/4 79/4/4
f 79/4/4 78/4/4 80/4/4
f 81/5/4 82/5/4 83/5/4
f 83/5/4 82/5/4 84/5/4
f 85/2/4 86/2/4 87/2/4
f 87/2/4 86/2/4 88/2/4
f 91/5/5 90/5/5 89/5/5
f 92/5/5 90/5/5 91/5/5
f 93/5/5 91/5/5 89/5/5
f 93/1/5 92/1/5 91/1/5
f 94/5/5 90/5/5 92/5/5
f 94/1/5 92/1/5 93/1/5
f 95/5/5 93/5/5 89/5/5
f 95/5/5 94/5/5 93/5/5
f 96/5/5 90/5/5 94/5/5
f 96/5/5 94/5/5 95/5/5
f 99/2/5 98/2/5 97/2/5
f 100/2/5 98/2/5 99/2/5
f 103/2/5 102/2/5 101/2/5
f 104/2/5 102/2/5 103/2/5
f 105/5/6 106/5/6 107/5/6
f 107/5/6 106/5/6 108/5/6
f 105/5/6 107/5/6 109/5/6
f 108/5/6 106/5/6 110/5/6
f 105/5/6 109/5/6 111/5/6
f 109/5/6 110/5/6 111/5/6
f 110/5/6 106/5/6 112/5/6
f 111/5/6 110/5/6 112/5/6
f 113/2/6 114/2/6 115/2/6
f 115/2/6 114/2/6 116/2/6
