# MagicaVoxel @ Ephtracy

# material
mtllib Sinal.mtl
usemtl palette

# normals
vn -1 0 0
vn 1 0 0
vn 0 0 1
vn 0 0 -1
vn 0 -1 0
vn 0 1 0

# texcoords
vt 0.0214844 0.5
vt 0.841797 0.5
vt 0.888672 0.5
vt 0.966797 0.5
vt 0.990234 0.5

# verts
v -2 0 19
v -2 0 14
v -2 2 19
v -2 2 14
v -1 2 18
v -1 2 15
v -1 44 -2
v -1 44 -6
v -1 45 -3
v -1 45 -5
v -1 47 15
v -1 47 -1
v -1 47 -2
v -1 50 18
v -1 50 -1
v -1 50 -2
v -1 51 -3
v -1 51 -5
v -1 52 -2
v -1 52 -6
v 0 45 -3
v 0 45 -5
v 0 47 -3
v 0 47 -5
v 0 49 -3
v 0 49 -5
v 0 51 -3
v 0 51 -5
v 1 45 -3
v 1 45 -5
v 1 47 -3
v 1 47 -5
v 1 49 -3
v 1 49 -5
v 1 51 -3
v 1 51 -5
v 2 2 18
v 2 2 15
v 2 44 -2
v 2 44 -6
v 2 45 -3
v 2 45 -5
v 2 47 15
v 2 47 -1
v 2 47 -2
v 2 50 18
v 2 50 -1
v 2 50 -2
v 2 51 -3
v 2 51 -5
v 2 52 -2
v 2 52 -6
v 3 0 19
v 3 0 14
v 3 2 19
v 3 2 14
v -2 0 19
v -2 2 19
v 3 0 19
v 3 2 19
v -1 2 18
v -1 50 18
v 2 2 18
v 2 50 18
v -1 44 -2
v -1 47 -2
v -1 50 -2
v -1 52 -2
v 2 44 -2
v 2 47 -2
v 2 50 -2
v 2 52 -2
v -1 45 -5
v -1 51 -5
v 0 45 -5
v 0 47 -5
v 0 49 -5
v 0 51 -5
v 1 45 -5
v 1 47 -5
v 1 49 -5
v 1 51 -5
v 2 45 -5
v 2 51 -5
v -1 2 15
v -1 47 15
v 2 2 15
v 2 47 15
v -2 0 14
v -2 2 14
v 3 0 14
v 3 2 14
v -1 45 -3
v -1 51 -3
v 0 45 -3
v 0 47 -3
v 0 49 -3
v 0 51 -3
v 1 45 -3
v 1 47 -3
v 1 49 -3
v 1 51 -3
v 2 45 -3
v 2 51 -3
v -1 44 -6
v -1 52 -6
v 2 44 -6
v 2 52 -6
v -2 0 19
v 3 0 19
v -2 0 14
v 3 0 14
v -1 44 -2
v 2 44 -2
v -1 44 -6
v 2 44 -6
v -1 47 15
v 2 47 15
v -1 47 -1
v 2 47 -1
v -1 47 -2
v 2 47 -2
v -1 51 -3
v 0 51 -3
v 1 51 -3
v 2 51 -3
v -1 51 -5
v 0 51 -5
v 1 51 -5
v 2 51 -5
v -2 2 19
v 3 2 19
v -1 2 18
v 2 2 18
v -1 2 15
v 2 2 15
v -2 2 14
v 3 2 14
v -1 45 -3
v 0 45 -3
v 1 45 -3
v 2 45 -3
v -1 45 -5
v 0 45 -5
v 1 45 -5
v 2 45 -5
v -1 50 18
v 2 50 18
v -1 50 -1
v 2 50 -1
v -1 50 -2
v 2 50 -2
v -1 52 -2
v 2 52 -2
v -1 52 -6
v 2 52 -6

# faces
f 3/5/1 2/5/1 1/5/1
f 4/5/1 2/5/1 3/5/1
f 9/4/1 8/4/1 7/4/1
f 10/4/1 8/4/1 9/4/1
f 11/5/1 6/5/1 5/5/1
f 13/4/1 9/4/1 7/4/1
f 14/5/1 12/5/1 11/5/1
f 14/5/1 11/5/1 5/5/1
f 15/4/1 13/4/1 12/4/1
f 15/5/1 12/5/1 14/5/1
f 16/4/1 9/4/1 13/4/1
f 16/4/1 13/4/1 15/4/1
f 17/4/1 9/4/1 16/4/1
f 18/4/1 8/4/1 10/4/1
f 19/4/1 17/4/1 16/4/1
f 19/4/1 18/4/1 17/4/1
f 20/4/1 8/4/1 18/4/1
f 20/4/1 18/4/1 19/4/1
f 23/2/1 22/2/1 21/2/1
f 24/2/1 22/2/1 23/2/1
f 25/1/1 24/1/1 23/1/1
f 26/1/1 24/1/1 25/1/1
f 27/3/1 26/3/1 25/3/1
f 28/3/1 26/3/1 27/3/1
f 29/2/2 30/2/2 31/2/2
f 31/2/2 30/2/2 32/2/2
f 31/1/2 32/1/2 33/1/2
f 33/1/2 32/1/2 34/1/2
f 33/3/2 34/3/2 35/3/2
f 35/3/2 34/3/2 36/3/2
f 39/4/2 40/4/2 41/4/2
f 41/4/2 40/4/2 42/4/2
f 37/5/2 38/5/2 43/5/2
f 39/4/2 41/4/2 45/4/2
f 43/5/2 44/5/2 46/5/2
f 37/5/2 43/5/2 46/5/2
f 44/4/2 45/4/2 47/4/2
f 46/5/2 44/5/2 47/5/2
f 45/4/2 41/4/2 48/4/2
f 47/4/2 45/4/2 48/4/2
f 48/4/2 41/4/2 49/4/2
f 42/4/2 40/4/2 50/4/2
f 48/4/2 49/4/2 51/4/2
f 49/4/2 50/4/2 51/4/2
f 50/4/2 40/4/2 52/4/2
f 51/4/2 50/4/2 52/4/2
f 53/5/2 54/5/2 55/5/2
f 55/5/2 54/5/2 56/5/2
f 59/5/3 58/5/3 57/5/3
f 60/5/3 58/5/3 59/5/3
f 63/5/3 62/5/3 61/5/3
f 64/5/3 62/5/3 63/5/3
f 69/4/3 66/4/3 65/4/3
f 70/4/3 66/4/3 69/4/3
f 71/4/3 68/4/3 67/4/3
f 72/4/3 68/4/3 71/4/3
f 75/4/3 74/4/3 73/4/3
f 76/4/3 74/4/3 75/4/3
f 77/4/3 74/4/3 76/4/3
f 78/4/3 74/4/3 77/4/3
f 83/4/3 80/4/3 79/4/3
f 83/4/3 82/4/3 81/4/3
f 83/4/3 81/4/3 80/4/3
f 84/4/3 82/4/3 83/4/3
f 85/5/4 86/5/4 87/5/4
f 87/5/4 86/5/4 88/5/4
f 89/5/4 90/5/4 91/5/4
f 91/5/4 90/5/4 92/5/4
f 93/4/4 94/4/4 95/4/4
f 95/4/4 94/4/4 96/4/4
f 96/4/4 94/4/4 97/4/4
f 97/4/4 94/4/4 98/4/4
f 99/4/4 100/4/4 103/4/4
f 101/4/4 102/4/4 103/4/4
f 100/4/4 101/4/4 103/4/4
f 103/4/4 102/4/4 104/4/4
f 105/4/4 106/4/4 107/4/4
f 107/4/4 106/4/4 108/4/4
f 111/5/5 110/5/5 109/5/5
f 112/5/5 110/5/5 111/5/5
f 115/4/5 114/4/5 113/4/5
f 116/4/5 114/4/5 115/4/5
f 119/5/5 118/5/5 117/5/5
f 120/5/5 118/5/5 119/5/5
f 121/4/5 120/4/5 119/4/5
f 122/4/5 120/4/5 121/4/5
f 127/4/5 124/4/5 123/4/5
f 128/4/5 124/4/5 127/4/5
f 129/4/5 126/4/5 125/4/5
f 130/4/5 126/4/5 129/4/5
f 131/5/6 132/5/6 133/5/6
f 133/5/6 132/5/6 134/5/6
f 131/5/6 133/5/6 135/5/6
f 134/5/6 132/5/6 136/5/6
f 131/5/6 135/5/6 137/5/6
f 135/5/6 136/5/6 137/5/6
f 136/5/6 132/5/6 138/5/6
f 137/5/6 136/5/6 138/5/6
f 139/4/6 140/4/6 143/4/6
f 143/4/6 140/4/6 144/4/6
f 141/4/6 142/4/6 145/4/6
f 145/4/6 142/4/6 146/4/6
f 147/5/6 148/5/6 149/5/6
f 149/5/6 148/5/6 150/5/6
f 149/4/6 150/4/6 151/4/6
f 151/4/6 150/4/6 152/4/6
f 153/4/6 154/4/6 155/4/6
f 155/4/6 154/4/6 156/4/6
