# MagicaVoxel @ Ephtracy

# material
mtllib UndetailedRoad.mtl
usemtl palette

# normals
vn -1 0 0
vn 1 0 0
vn 0 0 1
vn 0 0 -1
vn 0 -1 0
vn 0 1 0

# texcoords
vt 0.990234 0.5
vt 0.994141 0.5

# verts
v -20 0 20
v -20 0 -20
v -20 2 20
v -20 2 -20
v -15 1 -6
v -15 1 -7
v -15 2 -6
v -15 2 -7
v -10 1 13
v -10 1 12
v -10 2 13
v -10 2 12
v -9 1 16
v -9 1 15
v -9 2 16
v -9 2 15
v -7 1 10
v -7 1 9
v -7 2 10
v -7 2 9
v -5 1 -7
v -5 1 -8
v -5 2 -7
v -5 2 -8
v -4 1 12
v -4 1 11
v -4 2 12
v -4 2 11
v -2 1 -2
v -2 1 -3
v -2 2 -2
v -2 2 -3
v -1 1 8
v -1 1 7
v -1 1 -0
v -1 1 -1
v -1 2 8
v -1 2 7
v -1 2 -0
v -1 2 -1
v 1 1 -6
v 1 1 -7
v 1 2 -6
v 1 2 -7
v 5 1 10
v 5 1 9
v 5 2 10
v 5 2 9
v 7 1 16
v 7 1 15
v 7 2 16
v 7 2 15
v 8 1 15
v 8 1 14
v 8 1 -2
v 8 1 -3
v 8 2 15
v 8 2 14
v 8 2 -2
v 8 2 -3
v 11 1 9
v 11 1 8
v 11 1 -13
v 11 1 -14
v 11 2 9
v 11 2 8
v 11 2 -13
v 11 2 -14
v 12 1 12
v 12 1 11
v 12 2 12
v 12 2 11
v -16 1 -6
v -16 1 -7
v -16 2 -6
v -16 2 -7
v -11 1 13
v -11 1 12
v -11 2 13
v -11 2 12
v -10 1 16
v -10 1 15
v -10 2 16
v -10 2 15
v -9 1 10
v -9 1 9
v -9 2 10
v -9 2 9
v -6 1 -7
v -6 1 -8
v -6 2 -7
v -6 2 -8
v -5 1 12
v -5 1 11
v -5 2 12
v -5 2 11
v -3 1 -2
v -3 1 -3
v -3 2 -2
v -3 2 -3
v -2 1 8
v -2 1 7
v -2 1 -0
v -2 1 -1
v -2 2 8
v -2 2 7
v -2 2 -0
v -2 2 -1
v 0 1 -6
v 0 1 -7
v 0 2 -6
v 0 2 -7
v 4 1 10
v 4 1 9
v 4 2 10
v 4 2 9
v 6 1 16
v 6 1 15
v 6 2 16
v 6 2 15
v 7 1 15
v 7 1 14
v 7 1 -2
v 7 1 -3
v 7 2 15
v 7 2 14
v 7 2 -2
v 7 2 -3
v 10 1 9
v 10 1 8
v 10 1 -13
v 10 1 -14
v 10 2 9
v 10 2 8
v 10 2 -13
v 10 2 -14
v 11 1 12
v 11 1 11
v 11 2 12
v 11 2 11
v 19 1 5
v 19 1 3
v 19 1 1
v 19 1 -0
v 19 2 5
v 19 2 3
v 19 2 1
v 19 2 -0
v 20 0 20
v 20 0 5
v 20 0 3
v 20 0 1
v 20 0 -0
v 20 0 -20
v 20 1 5
v 20 1 3
v 20 1 1
v 20 1 -0
v 20 2 20
v 20 2 5
v 20 2 3
v 20 2 1
v 20 2 -0
v 20 2 -20
v -20 0 20
v -20 2 20
v 20 0 20
v 20 2 20
v -10 1 15
v -10 2 15
v -9 1 15
v -9 2 15
v 6 1 15
v 6 2 15
v 7 1 15
v 7 2 15
v 7 1 14
v 7 2 14
v 8 1 14
v 8 2 14
v -11 1 12
v -11 2 12
v -10 1 12
v -10 2 12
v -5 1 11
v -5 2 11
v -4 1 11
v -4 2 11
v 11 1 11
v 11 2 11
v 12 1 11
v 12 2 11
v -9 1 9
v -9 2 9
v -7 1 9
v -7 2 9
v 4 1 9
v 4 2 9
v 5 1 9
v 5 2 9
v 10 1 8
v 10 2 8
v 11 1 8
v 11 2 8
v -2 1 7
v -2 2 7
v -1 1 7
v -1 2 7
v 19 1 3
v 19 2 3
v 20 1 3
v 20 2 3
v 19 1 -0
v 19 2 -0
v 20 1 -0
v 20 2 -0
v -2 1 -1
v -2 2 -1
v -1 1 -1
v -1 2 -1
v -3 1 -3
v -3 2 -3
v -2 1 -3
v -2 2 -3
v 7 1 -3
v 7 2 -3
v 8 1 -3
v 8 2 -3
v -16 1 -7
v -16 2 -7
v -15 1 -7
v -15 2 -7
v 0 1 -7
v 0 2 -7
v 1 1 -7
v 1 2 -7
v -6 1 -8
v -6 2 -8
v -5 1 -8
v -5 2 -8
v 10 1 -14
v 10 2 -14
v 11 1 -14
v 11 2 -14
v -10 1 16
v -10 2 16
v -9 1 16
v -9 2 16
v 6 1 16
v 6 2 16
v 7 1 16
v 7 2 16
v 7 1 15
v 7 2 15
v 8 1 15
v 8 2 15
v -11 1 13
v -11 2 13
v -10 1 13
v -10 2 13
v -5 1 12
v -5 2 12
v -4 1 12
v -4 2 12
v 11 1 12
v 11 2 12
v 12 1 12
v 12 2 12
v -9 1 10
v -9 2 10
v -7 1 10
v -7 2 10
v 4 1 10
v 4 2 10
v 5 1 10
v 5 2 10
v 10 1 9
v 10 2 9
v 11 1 9
v 11 2 9
v -2 1 8
v -2 2 8
v -1 1 8
v -1 2 8
v 19 1 5
v 19 2 5
v 20 1 5
v 20 2 5
v 19 1 1
v 19 2 1
v 20 1 1
v 20 2 1
v -2 1 -0
v -2 2 -0
v -1 1 -0
v -1 2 -0
v -3 1 -2
v -3 2 -2
v -2 1 -2
v -2 2 -2
v 7 1 -2
v 7 2 -2
v 8 1 -2
v 8 2 -2
v -16 1 -6
v -16 2 -6
v -15 1 -6
v -15 2 -6
v 0 1 -6
v 0 2 -6
v 1 1 -6
v 1 2 -6
v -6 1 -7
v -6 2 -7
v -5 1 -7
v -5 2 -7
v 10 1 -13
v 10 2 -13
v 11 1 -13
v 11 2 -13
v -20 0 -20
v -20 2 -20
v 20 0 -20
v 20 2 -20
v -20 0 20
v 20 0 20
v -10 0 16
v -9 0 16
v 6 0 16
v 7 0 16
v -10 0 15
v -9 0 15
v 6 0 15
v 7 0 15
v 8 0 15
v 7 0 14
v 8 0 14
v -11 0 13
v -10 0 13
v -11 0 12
v -10 0 12
v -5 0 12
v -4 0 12
v 11 0 12
v 12 0 12
v -5 0 11
v -4 0 11
v 11 0 11
v 12 0 11
v -9 0 10
v -7 0 10
v 4 0 10
v 5 0 10
v -9 0 9
v -7 0 9
v 4 0 9
v 5 0 9
v 10 0 9
v 11 0 9
v -2 0 8
v -1 0 8
v 10 0 8
v 11 0 8
v -2 0 7
v -1 0 7
v 19 0 5
v 20 0 5
v 19 0 3
v 20 0 3
v 19 0 1
v 20 0 1
v -2 0 -0
v -1 0 -0
v 19 0 -0
v 20 0 -0
v -2 0 -1
v -1 0 -1
v -3 0 -2
v -2 0 -2
v 7 0 -2
v 8 0 -2
v -3 0 -3
v -2 0 -3
v 7 0 -3
v 8 0 -3
v -16 0 -6
v -15 0 -6
v 0 0 -6
v 1 0 -6
v -16 0 -7
v -15 0 -7
v -6 0 -7
v -5 0 -7
v 0 0 -7
v 1 0 -7
v -6 0 -8
v -5 0 -8
v 10 0 -13
v 11 0 -13
v 10 0 -14
v 11 0 -14
v -20 0 -20
v 20 0 -20
v -10 1 16
v -9 1 16
v 6 1 16
v 7 1 16
v -10 1 15
v -9 1 15
v 6 1 15
v 7 1 15
v 8 1 15
v 7 1 14
v 8 1 14
v -11 1 13
v -10 1 13
v -11 1 12
v -10 1 12
v -5 1 12
v -4 1 12
v 11 1 12
v 12 1 12
v -5 1 11
v -4 1 11
v 11 1 11
v 12 1 11
v -9 1 10
v -7 1 10
v 4 1 10
v 5 1 10
v -9 1 9
v -7 1 9
v 4 1 9
v 5 1 9
v 10 1 9
v 11 1 9
v -2 1 8
v -1 1 8
v 10 1 8
v 11 1 8
v -2 1 7
v -1 1 7
v 19 1 5
v 20 1 5
v 19 1 3
v 20 1 3
v 19 1 1
v 20 1 1
v -2 1 -0
v -1 1 -0
v 19 1 -0
v 20 1 -0
v -2 1 -1
v -1 1 -1
v -3 1 -2
v -2 1 -2
v 7 1 -2
v 8 1 -2
v -3 1 -3
v -2 1 -3
v 7 1 -3
v 8 1 -3
v -16 1 -6
v -15 1 -6
v 0 1 -6
v 1 1 -6
v -16 1 -7
v -15 1 -7
v -6 1 -7
v -5 1 -7
v 0 1 -7
v 1 1 -7
v -6 1 -8
v -5 1 -8
v 10 1 -13
v 11 1 -13
v 10 1 -14
v 11 1 -14
v -20 2 20
v 20 2 20
v -10 2 16
v -9 2 16
v 6 2 16
v 7 2 16
v -10 2 15
v -9 2 15
v 6 2 15
v 7 2 15
v 8 2 15
v 7 2 14
v 8 2 14
v -11 2 13
v -10 2 13
v -11 2 12
v -10 2 12
v -5 2 12
v -4 2 12
v 11 2 12
v 12 2 12
v -5 2 11
v -4 2 11
v 11 2 11
v 12 2 11
v -9 2 10
v -7 2 10
v 4 2 10
v 5 2 10
v -9 2 9
v -7 2 9
v 4 2 9
v 5 2 9
v 10 2 9
v 11 2 9
v -2 2 8
v -1 2 8
v 10 2 8
v 11 2 8
v -2 2 7
v -1 2 7
v 19 2 5
v 20 2 5
v 19 2 3
v 20 2 3
v 19 2 1
v 20 2 1
v -2 2 -0
v -1 2 -0
v 19 2 -0
v 20 2 -0
v -2 2 -1
v -1 2 -1
v -3 2 -2
v -2 2 -2
v 7 2 -2
v 8 2 -2
v -3 2 -3
v -2 2 -3
v 7 2 -3
v 8 2 -3
v -16 2 -6
v -15 2 -6
v 0 2 -6
v 1 2 -6
v -16 2 -7
v -15 2 -7
v -6 2 -7
v -5 2 -7
v 0 2 -7
v 1 2 -7
v -6 2 -8
v -5 2 -8
v 10 2 -13
v 11 2 -13
v 10 2 -14
v 11 2 -14
v -20 2 -20
v 20 2 -20

# faces
f 3/2/1 2/2/1 1/2/1
f 4/2/1 2/2/1 3/2/1
f 7/2/1 6/2/1 5/2/1
f 8/2/1 6/2/1 7/2/1
f 11/2/1 10/2/1 9/2/1
f 12/2/1 10/2/1 11/2/1
f 15/2/1 14/2/1 13/2/1
f 16/2/1 14/2/1 15/2/1
f 19/2/1 18/2/1 17/2/1
f 20/2/1 18/2/1 19/2/1
f 23/2/1 22/2/1 21/2/1
f 24/2/1 22/2/1 23/2/1
f 27/2/1 26/2/1 25/2/1
f 28/2/1 26/2/1 27/2/1
f 31/2/1 30/2/1 29/2/1
f 32/2/1 30/2/1 31/2/1
f 37/2/1 34/2/1 33/2/1
f 38/2/1 34/2/1 37/2/1
f 39/2/1 36/2/1 35/2/1
f 40/2/1 36/2/1 39/2/1
f 43/2/1 42/2/1 41/2/1
f 44/2/1 42/2/1 43/2/1
f 47/2/1 46/2/1 45/2/1
f 48/2/1 46/2/1 47/2/1
f 51/2/1 50/2/1 49/2/1
f 52/2/1 50/2/1 51/2/1
f 57/2/1 54/2/1 53/2/1
f 58/2/1 54/2/1 57/2/1
f 59/2/1 56/2/1 55/2/1
f 60/2/1 56/2/1 59/2/1
f 65/2/1 62/2/1 61/2/1
f 66/2/1 62/2/1 65/2/1
f 67/2/1 64/2/1 63/2/1
f 68/2/1 64/2/1 67/2/1
f 71/2/1 70/2/1 69/2/1
f 72/2/1 70/2/1 71/2/1
f 73/2/2 74/2/2 75/2/2
f 75/2/2 74/2/2 76/2/2
f 77/2/2 78/2/2 79/2/2
f 79/2/2 78/2/2 80/2/2
f 81/2/2 82/2/2 83/2/2
f 83/2/2 82/2/2 84/2/2
f 85/2/2 86/2/2 87/2/2
f 87/2/2 86/2/2 88/2/2
f 89/2/2 90/2/2 91/2/2
f 91/2/2 90/2/2 92/2/2
f 93/2/2 94/2/2 95/2/2
f 95/2/2 94/2/2 96/2/2
f 97/2/2 98/2/2 99/2/2
f 99/2/2 98/2/2 100/2/2
f 101/2/2 102/2/2 105/2/2
f 105/2/2 102/2/2 106/2/2
f 103/2/2 104/2/2 107/2/2
f 107/2/2 104/2/2 108/2/2
f 109/2/2 110/2/2 111/2/2
f 111/2/2 110/2/2 112/2/2
f 113/2/2 114/2/2 115/2/2
f 115/2/2 114/2/2 116/2/2
f 117/2/2 118/2/2 119/2/2
f 119/2/2 118/2/2 120/2/2
f 121/2/2 122/2/2 125/2/2
f 125/2/2 122/2/2 126/2/2
f 123/2/2 124/2/2 127/2/2
f 127/2/2 124/2/2 128/2/2
f 129/2/2 130/2/2 133/2/2
f 133/2/2 130/2/2 134/2/2
f 131/2/2 132/2/2 135/2/2
f 135/2/2 132/2/2 136/2/2
f 137/2/2 138/2/2 139/2/2
f 139/2/2 138/2/2 140/2/2
f 141/2/2 142/2/2 145/2/2
f 145/2/2 142/2/2 146/2/2
f 143/2/2 144/2/2 147/2/2
f 147/2/2 144/2/2 148/2/2
f 149/2/2 150/2/2 155/2/2
f 150/1/2 151/1/2 155/1/2
f 151/2/2 152/2/2 156/2/2
f 155/1/2 151/1/2 156/1/2
f 152/1/2 153/1/2 157/1/2
f 156/2/2 152/2/2 157/2/2
f 153/2/2 154/2/2 158/2/2
f 157/1/2 153/1/2 158/1/2
f 149/2/2 155/2/2 159/2/2
f 159/2/2 155/2/2 160/2/2
f 156/2/2 157/2/2 161/2/2
f 161/2/2 157/2/2 162/2/2
f 158/2/2 154/2/2 163/2/2
f 163/2/2 154/2/2 164/2/2
f 167/2/3 166/2/3 165/2/3
f 168/2/3 166/2/3 167/2/3
f 171/2/3 170/2/3 169/2/3
f 172/2/3 170/2/3 171/2/3
f 175/2/3 174/2/3 173/2/3
f 176/2/3 174/2/3 175/2/3
f 179/2/3 178/2/3 177/2/3
f 180/2/3 178/2/3 179/2/3
f 183/2/3 182/2/3 181/2/3
f 184/2/3 182/2/3 183/2/3
f 187/2/3 186/2/3 185/2/3
f 188/2/3 186/2/3 187/2/3
f 191/2/3 190/2/3 189/2/3
f 192/2/3 190/2/3 191/2/3
f 195/2/3 194/2/3 193/2/3
f 196/2/3 194/2/3 195/2/3
f 199/2/3 198/2/3 197/2/3
f 200/2/3 198/2/3 199/2/3
f 203/2/3 202/2/3 201/2/3
f 204/2/3 202/2/3 203/2/3
f 207/2/3 206/2/3 205/2/3
f 208/2/3 206/2/3 207/2/3
f 211/2/3 210/2/3 209/2/3
f 212/2/3 210/2/3 211/2/3
f 215/2/3 214/2/3 213/2/3
f 216/2/3 214/2/3 215/2/3
f 219/2/3 218/2/3 217/2/3
f 220/2/3 218/2/3 219/2/3
f 223/2/3 222/2/3 221/2/3
f 224/2/3 222/2/3 223/2/3
f 227/2/3 226/2/3 225/2/3
f 228/2/3 226/2/3 227/2/3
f 231/2/3 230/2/3 229/2/3
f 232/2/3 230/2/3 231/2/3
f 235/2/3 234/2/3 233/2/3
f 236/2/3 234/2/3 235/2/3
f 239/2/3 238/2/3 237/2/3
f 240/2/3 238/2/3 239/2/3
f 243/2/3 242/2/3 241/2/3
f 244/2/3 242/2/3 243/2/3
f 245/2/4 246/2/4 247/2/4
f 247/2/4 246/2/4 248/2/4
f 249/2/4 250/2/4 251/2/4
f 251/2/4 250/2/4 252/2/4
f 253/2/4 254/2/4 255/2/4
f 255/2/4 254/2/4 256/2/4
f 257/2/4 258/2/4 259/2/4
f 259/2/4 258/2/4 260/2/4
f 261/2/4 262/2/4 263/2/4
f 263/2/4 262/2/4 264/2/4
f 265/2/4 266/2/4 267/2/4
f 267/2/4 266/2/4 268/2/4
f 269/2/4 270/2/4 271/2/4
f 271/2/4 270/2/4 272/2/4
f 273/2/4 274/2/4 275/2/4
f 275/2/4 274/2/4 276/2/4
f 277/2/4 278/2/4 279/2/4
f 279/2/4 278/2/4 280/2/4
f 281/2/4 282/2/4 283/2/4
f 283/2/4 282/2/4 284/2/4
f 285/2/4 286/2/4 287/2/4
f 287/2/4 286/2/4 288/2/4
f 289/2/4 290/2/4 291/2/4
f 291/2/4 290/2/4 292/2/4
f 293/2/4 294/2/4 295/2/4
f 295/2/4 294/2/4 296/2/4
f 297/2/4 298/2/4 299/2/4
f 299/2/4 298/2/4 300/2/4
f 301/2/4 302/2/4 303/2/4
f 303/2/4 302/2/4 304/2/4
f 305/2/4 306/2/4 307/2/4
f 307/2/4 306/2/4 308/2/4
f 309/2/4 310/2/4 311/2/4
f 311/2/4 310/2/4 312/2/4
f 313/2/4 314/2/4 315/2/4
f 315/2/4 314/2/4 316/2/4
f 317/2/4 318/2/4 319/2/4
f 319/2/4 318/2/4 320/2/4
f 321/2/4 322/2/4 323/2/4
f 323/2/4 322/2/4 324/2/4
f 327/2/5 326/2/5 325/2/5
f 328/2/5 326/2/5 327/2/5
f 329/2/5 326/2/5 328/2/5
f 330/2/5 326/2/5 329/2/5
f 331/2/5 327/2/5 325/2/5
f 331/1/5 328/1/5 327/1/5
f 332/2/5 329/2/5 328/2/5
f 332/1/5 328/1/5 331/1/5
f 333/1/5 330/1/5 329/1/5
f 333/2/5 329/2/5 332/2/5
f 334/2/5 326/2/5 330/2/5
f 334/1/5 330/1/5 333/1/5
f 335/2/5 326/2/5 334/2/5
f 336/2/5 333/2/5 332/2/5
f 336/2/5 332/2/5 331/2/5
f 336/1/5 335/1/5 334/1/5
f 336/2/5 334/2/5 333/2/5
f 337/2/5 326/2/5 335/2/5
f 337/1/5 335/1/5 336/1/5
f 338/2/5 336/2/5 331/2/5
f 338/2/5 331/2/5 325/2/5
f 338/2/5 337/2/5 336/2/5
f 339/2/5 337/2/5 338/2/5
f 340/2/5 338/2/5 325/2/5
f 340/1/5 339/1/5 338/1/5
f 341/2/5 337/2/5 339/2/5
f 341/1/5 339/1/5 340/1/5
f 342/2/5 337/2/5 341/2/5
f 343/2/5 337/2/5 342/2/5
f 344/2/5 326/2/5 337/2/5
f 344/2/5 337/2/5 343/2/5
f 345/2/5 326/2/5 344/2/5
f 346/1/5 343/1/5 342/1/5
f 346/2/5 341/2/5 340/2/5
f 346/2/5 342/2/5 341/2/5
f 347/2/5 344/2/5 343/2/5
f 347/1/5 343/1/5 346/1/5
f 348/1/5 345/1/5 344/1/5
f 348/2/5 344/2/5 347/2/5
f 349/2/5 326/2/5 345/2/5
f 349/1/5 345/1/5 348/1/5
f 350/2/5 348/2/5 347/2/5
f 350/2/5 347/2/5 346/2/5
f 350/2/5 349/2/5 348/2/5
f 350/2/5 346/2/5 340/2/5
f 351/2/5 349/2/5 350/2/5
f 352/2/5 349/2/5 351/2/5
f 353/2/5 349/2/5 352/2/5
f 354/2/5 350/2/5 340/2/5
f 354/1/5 351/1/5 350/1/5
f 355/2/5 352/2/5 351/2/5
f 355/1/5 351/1/5 354/1/5
f 356/1/5 353/1/5 352/1/5
f 356/2/5 352/2/5 355/2/5
f 357/2/5 349/2/5 353/2/5
f 357/1/5 353/1/5 356/1/5
f 358/2/5 349/2/5 357/2/5
f 359/2/5 349/2/5 358/2/5
f 360/2/5 356/2/5 355/2/5
f 360/2/5 355/2/5 354/2/5
f 360/2/5 357/2/5 356/2/5
f 360/2/5 358/2/5 357/2/5
f 361/2/5 358/2/5 360/2/5
f 362/1/5 359/1/5 358/1/5
f 362/2/5 358/2/5 361/2/5
f 363/2/5 349/2/5 359/2/5
f 363/1/5 359/1/5 362/1/5
f 364/1/5 361/1/5 360/1/5
f 364/2/5 360/2/5 354/2/5
f 365/2/5 362/2/5 361/2/5
f 365/1/5 361/1/5 364/1/5
f 365/2/5 363/2/5 362/2/5
f 366/2/5 326/2/5 349/2/5
f 366/2/5 363/2/5 365/2/5
f 366/2/5 365/2/5 364/2/5
f 366/2/5 349/2/5 363/2/5
f 367/2/5 326/2/5 366/2/5
f 368/2/5 366/2/5 364/2/5
f 368/1/5 367/1/5 366/1/5
f 369/1/5 367/1/5 368/1/5
f 370/2/5 368/2/5 364/2/5
f 370/2/5 369/2/5 368/2/5
f 371/2/5 369/2/5 370/2/5
f 372/2/5 364/2/5 354/2/5
f 372/2/5 370/2/5 364/2/5
f 373/2/5 370/2/5 372/2/5
f 374/1/5 371/1/5 370/1/5
f 374/2/5 370/2/5 373/2/5
f 375/1/5 371/1/5 374/1/5
f 376/1/5 373/1/5 372/1/5
f 376/2/5 372/2/5 354/2/5
f 377/2/5 375/2/5 374/2/5
f 377/1/5 373/1/5 376/1/5
f 377/2/5 374/2/5 373/2/5
f 378/2/5 376/2/5 354/2/5
f 378/2/5 377/2/5 376/2/5
f 379/2/5 377/2/5 378/2/5
f 380/2/5 375/2/5 377/2/5
f 380/2/5 377/2/5 379/2/5
f 381/2/5 375/2/5 380/2/5
f 382/1/5 379/1/5 378/1/5
f 382/2/5 378/2/5 354/2/5
f 383/2/5 380/2/5 379/2/5
f 383/1/5 379/1/5 382/1/5
f 384/1/5 381/1/5 380/1/5
f 384/2/5 380/2/5 383/2/5
f 385/2/5 375/2/5 381/2/5
f 385/1/5 381/1/5 384/1/5
f 386/2/5 354/2/5 340/2/5
f 386/2/5 340/2/5 325/2/5
f 386/2/5 385/2/5 384/2/5
f 386/2/5 382/2/5 354/2/5
f 386/2/5 383/2/5 382/2/5
f 386/2/5 384/2/5 383/2/5
f 387/2/5 385/2/5 386/2/5
f 388/2/5 385/2/5 387/2/5
f 389/2/5 385/2/5 388/2/5
f 390/2/5 386/2/5 325/2/5
f 390/1/5 387/1/5 386/1/5
f 391/2/5 388/2/5 387/2/5
f 391/1/5 387/1/5 390/1/5
f 392/2/5 388/2/5 391/2/5
f 393/2/5 388/2/5 392/2/5
f 394/1/5 389/1/5 388/1/5
f 394/2/5 388/2/5 393/2/5
f 395/2/5 385/2/5 389/2/5
f 395/1/5 389/1/5 394/1/5
f 396/1/5 393/1/5 392/1/5
f 396/2/5 391/2/5 390/2/5
f 396/2/5 392/2/5 391/2/5
f 397/2/5 394/2/5 393/2/5
f 397/1/5 393/1/5 396/1/5
f 397/2/5 395/2/5 394/2/5
f 398/2/5 375/2/5 385/2/5
f 398/2/5 395/2/5 397/2/5
f 398/2/5 397/2/5 396/2/5
f 398/2/5 385/2/5 395/2/5
f 399/2/5 375/2/5 398/2/5
f 400/2/5 398/2/5 396/2/5
f 400/1/5 399/1/5 398/1/5
f 401/2/5 375/2/5 399/2/5
f 401/1/5 399/1/5 400/1/5
f 402/2/5 390/2/5 325/2/5
f 402/2/5 396/2/5 390/2/5
f 402/2/5 401/2/5 400/2/5
f 402/2/5 400/2/5 396/2/5
f 403/2/5 375/2/5 401/2/5
f 403/2/5 401/2/5 402/2/5
f 404/1/6 405/1/6 408/1/6
f 408/1/6 405/1/6 409/1/6
f 406/1/6 407/1/6 410/1/6
f 410/1/6 407/1/6 411/1/6
f 411/1/6 412/1/6 413/1/6
f 413/1/6 412/1/6 414/1/6
f 415/1/6 416/1/6 417/1/6
f 417/1/6 416/1/6 418/1/6
f 419/1/6 420/1/6 423/1/6
f 423/1/6 420/1/6 424/1/6
f 421/1/6 422/1/6 425/1/6
f 425/1/6 422/1/6 426/1/6
f 427/1/6 428/1/6 431/1/6
f 431/1/6 428/1/6 432/1/6
f 429/1/6 430/1/6 433/1/6
f 433/1/6 430/1/6 434/1/6
f 435/1/6 436/1/6 439/1/6
f 439/1/6 436/1/6 440/1/6
f 437/1/6 438/1/6 441/1/6
f 441/1/6 438/1/6 442/1/6
f 443/1/6 444/1/6 445/1/6
f 445/1/6 444/1/6 446/1/6
f 447/1/6 448/1/6 451/1/6
f 451/1/6 448/1/6 452/1/6
f 449/1/6 450/1/6 453/1/6
f 453/1/6 450/1/6 454/1/6
f 455/1/6 456/1/6 459/1/6
f 459/1/6 456/1/6 460/1/6
f 457/1/6 458/1/6 461/1/6
f 461/1/6 458/1/6 462/1/6
f 463/1/6 464/1/6 467/1/6
f 467/1/6 464/1/6 468/1/6
f 465/1/6 466/1/6 471/1/6
f 471/1/6 466/1/6 472/1/6
f 469/1/6 470/1/6 473/1/6
f 473/1/6 470/1/6 474/1/6
f 475/1/6 476/1/6 477/1/6
f 477/1/6 476/1/6 478/1/6
f 479/2/6 480/2/6 481/2/6
f 481/2/6 480/2/6 482/2/6
f 482/2/6 480/2/6 483/2/6
f 483/2/6 480/2/6 484/2/6
f 479/2/6 481/2/6 485/2/6
f 482/2/6 483/2/6 486/2/6
f 486/2/6 483/2/6 487/2/6
f 484/2/6 480/2/6 488/2/6
f 488/2/6 480/2/6 489/2/6
f 486/2/6 487/2/6 490/2/6
f 485/2/6 486/2/6 490/2/6
f 487/2/6 488/2/6 490/2/6
f 489/2/6 480/2/6 491/2/6
f 485/2/6 490/2/6 492/2/6
f 490/2/6 491/2/6 492/2/6
f 479/2/6 485/2/6 492/2/6
f 492/2/6 491/2/6 493/2/6
f 479/2/6 492/2/6 494/2/6
f 493/2/6 491/2/6 495/2/6
f 495/2/6 491/2/6 496/2/6
f 496/2/6 491/2/6 497/2/6
f 491/2/6 480/2/6 498/2/6
f 497/2/6 491/2/6 498/2/6
f 498/2/6 480/2/6 499/2/6
f 494/2/6 495/2/6 500/2/6
f 495/2/6 496/2/6 500/2/6
f 497/2/6 498/2/6 501/2/6
f 501/2/6 498/2/6 502/2/6
f 499/2/6 480/2/6 503/2/6
f 501/2/6 502/2/6 504/2/6
f 502/2/6 503/2/6 504/2/6
f 494/2/6 500/2/6 504/2/6
f 500/2/6 501/2/6 504/2/6
f 504/2/6 503/2/6 505/2/6
f 505/2/6 503/2/6 506/2/6
f 506/2/6 503/2/6 507/2/6
f 494/2/6 504/2/6 508/2/6
f 505/2/6 506/2/6 509/2/6
f 509/2/6 506/2/6 510/2/6
f 507/2/6 503/2/6 511/2/6
f 511/2/6 503/2/6 512/2/6
f 512/2/6 503/2/6 513/2/6
f 509/2/6 510/2/6 514/2/6
f 508/2/6 509/2/6 514/2/6
f 511/2/6 512/2/6 514/2/6
f 510/2/6 511/2/6 514/2/6
f 514/2/6 512/2/6 515/2/6
f 515/2/6 512/2/6 516/2/6
f 513/2/6 503/2/6 517/2/6
f 508/2/6 514/2/6 518/2/6
f 515/2/6 516/2/6 519/2/6
f 516/2/6 517/2/6 519/2/6
f 503/2/6 480/2/6 520/2/6
f 518/2/6 519/2/6 520/2/6
f 519/2/6 517/2/6 520/2/6
f 517/2/6 503/2/6 520/2/6
f 520/2/6 480/2/6 521/2/6
f 518/2/6 520/2/6 522/2/6
f 518/2/6 522/2/6 524/2/6
f 522/2/6 523/2/6 524/2/6
f 524/2/6 523/2/6 525/2/6
f 508/2/6 518/2/6 526/2/6
f 518/2/6 524/2/6 526/2/6
f 526/2/6 524/2/6 527/2/6
f 527/2/6 524/2/6 528/2/6
f 508/2/6 526/2/6 530/2/6
f 528/2/6 529/2/6 531/2/6
f 527/2/6 528/2/6 531/2/6
f 508/2/6 530/2/6 532/2/6
f 530/2/6 531/2/6 532/2/6
f 532/2/6 531/2/6 533/2/6
f 531/2/6 529/2/6 534/2/6
f 533/2/6 531/2/6 534/2/6
f 534/2/6 529/2/6 535/2/6
f 508/2/6 532/2/6 536/2/6
f 533/2/6 534/2/6 537/2/6
f 537/2/6 534/2/6 538/2/6
f 535/2/6 529/2/6 539/2/6
f 479/2/6 494/2/6 540/2/6
f 538/2/6 539/2/6 540/2/6
f 494/2/6 508/2/6 540/2/6
f 537/2/6 538/2/6 540/2/6
f 536/2/6 537/2/6 540/2/6
f 508/2/6 536/2/6 540/2/6
f 540/2/6 539/2/6 541/2/6
f 541/2/6 539/2/6 542/2/6
f 542/2/6 539/2/6 543/2/6
f 479/2/6 540/2/6 544/2/6
f 541/2/6 542/2/6 545/2/6
f 545/2/6 542/2/6 546/2/6
f 546/2/6 542/2/6 547/2/6
f 547/2/6 542/2/6 548/2/6
f 543/2/6 539/2/6 549/2/6
f 544/2/6 545/2/6 550/2/6
f 545/2/6 546/2/6 550/2/6
f 547/2/6 548/2/6 551/2/6
f 548/2/6 549/2/6 551/2/6
f 539/2/6 529/2/6 552/2/6
f 550/2/6 551/2/6 552/2/6
f 551/2/6 549/2/6 552/2/6
f 549/2/6 539/2/6 552/2/6
f 552/2/6 529/2/6 553/2/6
f 550/2/6 552/2/6 554/2/6
f 553/2/6 529/2/6 555/2/6
f 544/2/6 550/2/6 556/2/6
f 554/2/6 555/2/6 556/2/6
f 479/2/6 544/2/6 556/2/6
f 550/2/6 554/2/6 556/2/6
f 555/2/6 529/2/6 557/2/6
f 556/2/6 555/2/6 557/2/6
