# MagicaVoxel @ Ephtracy

# material
mtllib Walk2.mtl
usemtl palette

# normals
vn -1 0 0
vn 1 0 0
vn 0 0 1
vn 0 0 -1
vn 0 -1 0
vn 0 1 0

# texcoords
vt 0.982422 0.5
vt 0.986328 0.5

# verts
v -20 0 20
v -20 0 -20
v -20 1 16
v -20 1 15
v -20 1 -3
v -20 1 -4
v -20 2 20
v -20 2 16
v -20 2 15
v -20 2 -3
v -20 2 -4
v -20 2 -20
v -19 1 16
v -19 1 15
v -19 1 -3
v -19 1 -4
v -19 2 16
v -19 2 15
v -19 2 -3
v -19 2 -4
v -12 1 8
v -12 1 7
v -12 2 8
v -12 2 7
v -9 1 -9
v -9 1 -10
v -9 2 -9
v -9 2 -10
v -3 1 13
v -3 1 12
v -3 2 13
v -3 2 12
v 1 1 -1
v 1 1 -2
v 1 2 -1
v 1 2 -2
v 4 1 11
v 4 1 10
v 4 2 11
v 4 2 10
v -14 1 8
v -14 1 7
v -14 2 8
v -14 2 7
v -10 1 -9
v -10 1 -10
v -10 2 -9
v -10 2 -10
v -4 1 13
v -4 1 12
v -4 2 13
v -4 2 12
v 0 1 -1
v 0 1 -2
v 0 2 -1
v 0 2 -2
v 3 1 11
v 3 1 10
v 3 2 11
v 3 2 10
v 20 0 20
v 20 0 -20
v 20 2 20
v 20 2 -20
v -20 0 20
v -20 2 20
v 20 0 20
v 20 2 20
v -20 1 15
v -20 2 15
v -19 1 15
v -19 2 15
v -4 1 12
v -4 2 12
v -3 1 12
v -3 2 12
v 3 1 10
v 3 2 10
v 4 1 10
v 4 2 10
v -14 1 7
v -14 2 7
v -12 1 7
v -12 2 7
v 0 1 -2
v 0 2 -2
v 1 1 -2
v 1 2 -2
v -20 1 -4
v -20 2 -4
v -19 1 -4
v -19 2 -4
v -10 1 -10
v -10 2 -10
v -9 1 -10
v -9 2 -10
v -20 1 16
v -20 2 16
v -19 1 16
v -19 2 16
v -4 1 13
v -4 2 13
v -3 1 13
v -3 2 13
v 3 1 11
v 3 2 11
v 4 1 11
v 4 2 11
v -14 1 8
v -14 2 8
v -12 1 8
v -12 2 8
v 0 1 -1
v 0 2 -1
v 1 1 -1
v 1 2 -1
v -20 1 -3
v -20 2 -3
v -19 1 -3
v -19 2 -3
v -10 1 -9
v -10 2 -9
v -9 1 -9
v -9 2 -9
v -20 0 -20
v -20 2 -20
v 20 0 -20
v 20 2 -20
v -20 0 20
v 20 0 20
v -20 0 -20
v 20 0 -20
v -20 1 16
v -19 1 16
v -20 1 15
v -19 1 15
v -4 1 13
v -3 1 13
v -4 1 12
v -3 1 12
v 3 1 11
v 4 1 11
v 3 1 10
v 4 1 10
v -14 1 8
v -12 1 8
v -14 1 7
v -12 1 7
v 0 1 -1
v 1 1 -1
v 0 1 -2
v 1 1 -2
v -20 1 -3
v -19 1 -3
v -20 1 -4
v -19 1 -4
v -10 1 -9
v -9 1 -9
v -10 1 -10
v -9 1 -10
v -20 2 20
v 20 2 20
v -20 2 16
v -19 2 16
v -20 2 15
v -19 2 15
v -9 2 15
v -8 2 15
v -9 2 14
v -8 2 14
v 6 2 14
v 7 2 14
v -4 2 13
v -3 2 13
v 6 2 13
v 7 2 13
v -4 2 12
v -3 2 12
v 3 2 11
v 4 2 11
v 3 2 10
v 4 2 10
v -14 2 8
v -12 2 8
v -14 2 7
v -12 2 7
v -7 2 6
v -6 2 6
v -7 2 5
v -6 2 5
v 5 2 5
v 6 2 5
v 5 2 4
v 6 2 4
v 12 2 1
v 13 2 1
v 12 2 -0
v 13 2 -0
v -8 2 -1
v -7 2 -1
v 0 2 -1
v 1 2 -1
v -8 2 -2
v -7 2 -2
v 0 2 -2
v 1 2 -2
v -20 2 -3
v -19 2 -3
v -20 2 -4
v -19 2 -4
v 10 2 -5
v 11 2 -5
v 10 2 -6
v 11 2 -6
v 1 2 -7
v 2 2 -7
v 1 2 -8
v 2 2 -8
v -17 2 -9
v -16 2 -9
v -10 2 -9
v -9 2 -9
v -17 2 -10
v -16 2 -10
v -10 2 -10
v -9 2 -10
v 4 2 -14
v 5 2 -14
v 4 2 -15
v 5 2 -15
v -4 2 -16
v -3 2 -16
v -4 2 -17
v -3 2 -17
v -20 2 -20
v 20 2 -20

# faces
f 3/1/1 2/1/1 1/1/1
f 4/1/1 2/1/1 3/1/1
f 5/1/1 2/1/1 4/1/1
f 6/1/1 2/1/1 5/1/1
f 7/1/1 3/1/1 1/1/1
f 8/1/1 3/1/1 7/1/1
f 9/1/1 5/1/1 4/1/1
f 10/1/1 5/1/1 9/1/1
f 11/1/1 2/1/1 6/1/1
f 12/1/1 2/1/1 11/1/1
f 17/1/1 14/1/1 13/1/1
f 18/1/1 14/1/1 17/1/1
f 19/1/1 16/1/1 15/1/1
f 20/1/1 16/1/1 19/1/1
f 23/1/1 22/1/1 21/1/1
f 24/1/1 22/1/1 23/1/1
f 27/1/1 26/1/1 25/1/1
f 28/1/1 26/1/1 27/1/1
f 31/1/1 30/1/1 29/1/1
f 32/1/1 30/1/1 31/1/1
f 35/1/1 34/1/1 33/1/1
f 36/1/1 34/1/1 35/1/1
f 39/1/1 38/1/1 37/1/1
f 40/1/1 38/1/1 39/1/1
f 41/1/2 42/1/2 43/1/2
f 43/1/2 42/1/2 44/1/2
f 45/1/2 46/1/2 47/1/2
f 47/1/2 46/1/2 48/1/2
f 49/1/2 50/1/2 51/1/2
f 51/1/2 50/1/2 52/1/2
f 53/1/2 54/1/2 55/1/2
f 55/1/2 54/1/2 56/1/2
f 57/1/2 58/1/2 59/1/2
f 59/1/2 58/1/2 60/1/2
f 61/1/2 62/1/2 63/1/2
f 63/1/2 62/1/2 64/1/2
f 67/1/3 66/1/3 65/1/3
f 68/1/3 66/1/3 67/1/3
f 71/1/3 70/1/3 69/1/3
f 72/1/3 70/1/3 71/1/3
f 75/1/3 74/1/3 73/1/3
f 76/1/3 74/1/3 75/1/3
f 79/1/3 78/1/3 77/1/3
f 80/1/3 78/1/3 79/1/3
f 83/1/3 82/1/3 81/1/3
f 84/1/3 82/1/3 83/1/3
f 87/1/3 86/1/3 85/1/3
f 88/1/3 86/1/3 87/1/3
f 91/1/3 90/1/3 89/1/3
f 92/1/3 90/1/3 91/1/3
f 95/1/3 94/1/3 93/1/3
f 96/1/3 94/1/3 95/1/3
f 97/1/4 98/1/4 99/1/4
f 99/1/4 98/1/4 100/1/4
f 101/1/4 102/1/4 103/1/4
f 103/1/4 102/1/4 104/1/4
f 105/1/4 106/1/4 107/1/4
f 107/1/4 106/1/4 108/1/4
f 109/1/4 110/1/4 111/1/4
f 111/1/4 110/1/4 112/1/4
f 113/1/4 114/1/4 115/1/4
f 115/1/4 114/1/4 116/1/4
f 117/1/4 118/1/4 119/1/4
f 119/1/4 118/1/4 120/1/4
f 121/1/4 122/1/4 123/1/4
f 123/1/4 122/1/4 124/1/4
f 125/1/4 126/1/4 127/1/4
f 127/1/4 126/1/4 128/1/4
f 131/1/5 130/1/5 129/1/5
f 132/1/5 130/1/5 131/1/5
f 133/1/6 134/1/6 135/1/6
f 135/1/6 134/1/6 136/1/6
f 137/1/6 138/1/6 139/1/6
f 139/1/6 138/1/6 140/1/6
f 141/1/6 142/1/6 143/1/6
f 143/1/6 142/1/6 144/1/6
f 145/1/6 146/1/6 147/1/6
f 147/1/6 146/1/6 148/1/6
f 149/1/6 150/1/6 151/1/6
f 151/1/6 150/1/6 152/1/6
f 153/1/6 154/1/6 155/1/6
f 155/1/6 154/1/6 156/1/6
f 157/1/6 158/1/6 159/1/6
f 159/1/6 158/1/6 160/1/6
f 161/1/6 162/1/6 163/1/6
f 163/1/6 162/1/6 164/1/6
f 164/1/6 162/1/6 166/1/6
f 166/1/6 162/1/6 167/1/6
f 167/1/6 162/1/6 168/1/6
f 165/1/6 166/1/6 169/1/6
f 166/1/6 167/1/6 169/1/6
f 167/2/6 168/2/6 169/2/6
f 168/1/6 162/1/6 170/1/6
f 169/2/6 168/2/6 170/2/6
f 170/1/6 162/1/6 171/1/6
f 171/1/6 162/1/6 172/1/6
f 169/1/6 170/1/6 173/1/6
f 170/1/6 171/1/6 173/1/6
f 173/1/6 171/1/6 174/1/6
f 171/2/6 172/2/6 175/2/6
f 174/1/6 171/1/6 175/1/6
f 172/1/6 162/1/6 176/1/6
f 175/2/6 172/2/6 176/2/6
f 169/1/6 173/1/6 177/1/6
f 174/1/6 175/1/6 178/1/6
f 175/1/6 176/1/6 178/1/6
f 178/1/6 176/1/6 179/1/6
f 177/1/6 178/1/6 179/1/6
f 179/1/6 176/1/6 180/1/6
f 177/1/6 179/1/6 181/1/6
f 180/1/6 176/1/6 182/1/6
f 165/1/6 169/1/6 183/1/6
f 181/1/6 182/1/6 183/1/6
f 169/1/6 177/1/6 183/1/6
f 177/1/6 181/1/6 183/1/6
f 183/1/6 182/1/6 184/1/6
f 165/1/6 183/1/6 185/1/6
f 184/1/6 182/1/6 186/1/6
f 186/1/6 182/1/6 187/1/6
f 185/1/6 186/1/6 187/1/6
f 187/1/6 182/1/6 188/1/6
f 185/1/6 187/1/6 189/1/6
f 187/2/6 188/2/6 189/2/6
f 188/1/6 182/1/6 190/1/6
f 189/2/6 188/2/6 190/2/6
f 182/1/6 176/1/6 191/1/6
f 190/1/6 182/1/6 191/1/6
f 191/1/6 176/1/6 192/1/6
f 189/1/6 190/1/6 193/1/6
f 190/1/6 191/1/6 193/1/6
f 191/2/6 192/2/6 193/2/6
f 192/1/6 176/1/6 194/1/6
f 193/2/6 192/2/6 194/2/6
f 176/1/6 162/1/6 195/1/6
f 194/1/6 176/1/6 195/1/6
f 193/1/6 194/1/6 195/1/6
f 195/1/6 162/1/6 196/1/6
f 193/1/6 195/1/6 197/1/6
f 195/2/6 196/2/6 197/2/6
f 196/1/6 162/1/6 198/1/6
f 197/2/6 196/2/6 198/2/6
f 189/1/6 193/1/6 199/1/6
f 185/1/6 189/1/6 199/1/6
f 197/1/6 198/1/6 199/1/6
f 193/1/6 197/1/6 199/1/6
f 199/1/6 198/1/6 200/1/6
f 200/1/6 198/1/6 201/1/6
f 201/1/6 198/1/6 202/1/6
f 185/1/6 199/1/6 203/1/6
f 199/2/6 200/2/6 203/2/6
f 200/1/6 201/1/6 204/1/6
f 203/2/6 200/2/6 204/2/6
f 204/1/6 201/1/6 205/1/6
f 202/1/6 198/1/6 206/1/6
f 165/1/6 185/1/6 207/1/6
f 205/1/6 206/1/6 207/1/6
f 204/1/6 205/1/6 207/1/6
f 185/1/6 203/1/6 207/1/6
f 203/1/6 204/1/6 207/1/6
f 207/1/6 206/1/6 208/1/6
f 208/1/6 206/1/6 210/1/6
f 206/1/6 198/1/6 211/1/6
f 209/1/6 210/1/6 211/1/6
f 210/1/6 206/1/6 211/1/6
f 211/1/6 198/1/6 212/1/6
f 209/1/6 211/1/6 213/1/6
f 211/2/6 212/2/6 213/2/6
f 212/1/6 198/1/6 214/1/6
f 213/2/6 212/2/6 214/2/6
f 209/1/6 213/1/6 215/1/6
f 213/1/6 214/1/6 215/1/6
f 215/1/6 214/1/6 216/1/6
f 209/1/6 215/1/6 217/1/6
f 215/2/6 216/2/6 217/2/6
f 216/1/6 214/1/6 218/1/6
f 217/2/6 216/2/6 218/2/6
f 209/1/6 217/1/6 219/1/6
f 217/1/6 218/1/6 219/1/6
f 219/1/6 218/1/6 220/1/6
f 220/1/6 218/1/6 221/1/6
f 221/1/6 218/1/6 222/1/6
f 209/1/6 219/1/6 223/1/6
f 219/2/6 220/2/6 223/2/6
f 220/1/6 221/1/6 224/1/6
f 223/2/6 220/2/6 224/2/6
f 224/1/6 221/1/6 225/1/6
f 222/1/6 218/1/6 226/1/6
f 218/1/6 214/1/6 227/1/6
f 225/1/6 226/1/6 227/1/6
f 226/1/6 218/1/6 227/1/6
f 224/1/6 225/1/6 227/1/6
f 223/1/6 224/1/6 227/1/6
f 227/1/6 214/1/6 228/1/6
f 223/1/6 227/1/6 229/1/6
f 227/2/6 228/2/6 229/2/6
f 228/1/6 214/1/6 230/1/6
f 229/2/6 228/2/6 230/2/6
f 223/1/6 229/1/6 231/1/6
f 229/1/6 230/1/6 231/1/6
f 231/1/6 230/1/6 232/1/6
f 223/1/6 231/1/6 233/1/6
f 231/2/6 232/2/6 233/2/6
f 232/1/6 230/1/6 234/1/6
f 233/2/6 232/2/6 234/2/6
f 209/1/6 223/1/6 235/1/6
f 223/1/6 233/1/6 235/1/6
f 233/1/6 234/1/6 235/1/6
f 198/1/6 162/1/6 236/1/6
f 235/1/6 234/1/6 236/1/6
f 214/1/6 198/1/6 236/1/6
f 230/1/6 214/1/6 236/1/6
f 234/1/6 230/1/6 236/1/6
